<svg width="2.52778in" height="2.51389in" viewBox="0 0 182 181">
        <path fill="black"
        d="M 88.00,1.43
           C 93.47,0.88 93.97,1.69 99.00,1.97
             141.99,4.34 179.49,42.66 180.00,86.00
             180.00,86.00 180.00,93.00 180.00,93.00
             179.94,129.83 154.60,162.84 120.00,174.48
             108.53,178.34 98.97,179.14 87.00,179.00
             77.62,178.89 66.70,176.24 58.00,172.80
             27.56,160.74 3.05,129.39 3.00,96.00
             3.00,96.00 3.00,83.00 3.00,83.00
             3.13,72.63 7.18,59.25 11.81,50.00
             23.30,27.01 43.44,11.33 68.00,4.43
             75.52,2.31 80.68,2.46 88.00,1.43 Z
           M 92.00,56.00
           C 72.63,56.00 53.86,52.45 41.22,71.00
             38.82,74.53 37.96,76.91 37.00,81.00
             34.45,79.32 33.19,78.35 30.00,78.12
             15.73,77.12 16.37,97.58 29.00,97.79
             31.46,97.83 33.75,96.84 36.00,96.00
             36.84,113.24 50.78,126.59 68.00,126.99
             82.35,127.32 94.04,120.17 100.10,107.00
             104.76,96.87 101.99,92.15 103.60,88.04
             106.35,81.00 118.43,79.01 125.00,79.00
             125.00,79.00 149.00,79.00 149.00,79.00
             151.92,78.98 155.19,79.09 157.79,77.55
             162.92,74.50 163.59,62.45 159.57,58.43
             156.78,55.64 152.62,56.01 149.00,56.00
             149.00,56.00 100.00,56.00 100.00,56.00
             99.25,65.25 93.07,65.23 92.00,56.00 Z
           M 63.00,70.53
           C 70.64,69.27 77.88,69.76 83.82,75.33
             96.75,87.47 91.41,109.75 74.00,114.10
             47.25,120.79 34.92,79.28 63.00,70.53 Z
           M 68.00,72.39
           C 60.34,73.57 54.60,76.53 51.36,84.00
             45.73,97.02 55.42,112.71 70.00,111.89
             85.58,111.02 93.49,92.24 84.36,80.04
             80.40,74.73 74.44,72.46 68.00,72.39 Z
           M 27.05,81.78
           C 37.33,80.34 36.98,92.23 30.94,93.93
             24.61,95.70 18.41,86.78 27.05,81.78 Z" />
</svg>
