<svg width="180.6mm" height="180.6mm" viewBox="0 0 512 512">
        <path fill="black"
        d="M 116.00,219.00
           C 106.64,208.82 99.60,199.20 95.08,186.00
             90.11,171.51 90.83,160.94 91.00,146.00
             91.07,140.14 92.43,131.81 93.60,126.00
             100.19,93.25 117.15,62.61 142.00,40.17
             154.50,28.88 167.72,20.31 183.00,13.31
             198.39,6.26 221.06,0.03 238.00,0.00
             238.00,0.00 262.00,0.00 262.00,0.00
             262.00,0.00 304.00,0.00 304.00,0.00
             318.99,0.02 337.00,4.71 351.00,9.95
             395.33,26.53 428.86,63.42 443.67,108.00
             447.57,119.74 450.98,135.65 451.00,148.00
             451.00,148.00 451.00,194.00 451.00,194.00
             451.00,194.00 451.00,227.00 451.00,227.00
             451.00,227.00 450.09,239.00 450.09,239.00
             448.15,265.51 442.87,293.59 434.98,319.00
             428.34,340.35 418.31,365.37 407.69,385.00
             407.69,385.00 391.70,413.00 391.70,413.00
             390.87,415.52 391.00,418.37 391.00,421.00
             391.00,421.00 391.00,512.00 391.00,512.00
             391.00,512.00 151.00,512.00 151.00,512.00
             151.00,512.00 151.00,424.00 151.00,424.00
             151.00,422.09 151.12,418.91 150.40,417.18
             149.06,413.97 138.33,407.23 135.00,405.00
             135.00,405.00 92.00,374.83 92.00,374.83
             53.86,340.79 50.19,282.07 82.75,243.00
             90.38,233.85 104.39,222.31 116.00,219.00 Z
           M 151.00,301.00
           C 151.00,301.00 205.00,301.00 205.00,301.00
             214.27,300.89 223.83,299.08 230.91,292.68
             244.16,280.69 242.91,258.57 228.99,247.68
             217.92,239.03 197.59,241.00 184.00,241.00
             168.68,241.00 149.57,240.03 135.00,244.44
             111.08,251.67 92.04,275.90 92.00,301.00
             91.99,308.34 91.60,312.71 93.48,320.00
             100.47,347.19 122.31,358.86 144.00,373.33
             149.12,376.75 167.82,390.29 172.00,391.49
             174.08,392.09 176.82,392.00 179.00,392.00
             179.00,392.00 359.00,392.00 359.00,392.00
             361.39,392.00 364.69,392.21 366.79,390.98
             369.07,389.65 370.85,386.24 372.20,384.00
             372.20,384.00 382.25,366.00 382.25,366.00
             396.71,337.15 407.50,306.68 413.80,275.00
             417.60,255.88 419.97,236.48 420.00,217.00
             420.00,217.00 421.00,200.00 421.00,200.00
             421.00,200.00 421.00,166.00 421.00,166.00
             421.00,166.00 419.90,154.00 419.90,154.00
             419.90,154.00 419.90,143.00 419.90,143.00
             415.13,105.73 395.27,72.64 364.00,51.67
             355.05,45.67 343.25,40.04 333.00,36.67
             326.21,34.43 315.08,31.85 308.00,31.04
             308.00,31.04 299.00,31.04 299.00,31.04
             299.00,31.04 287.00,30.00 287.00,30.00
             262.38,29.96 234.60,28.71 211.00,36.02
             173.45,47.66 144.95,74.62 130.40,111.00
             125.83,122.42 122.02,137.68 122.00,150.00
             122.00,150.00 122.00,160.00 122.00,160.00
             122.01,166.97 122.55,170.40 125.06,177.00
             126.79,181.53 129.52,186.19 132.52,190.00
             153.42,216.58 185.23,210.66 215.00,211.00
             227.13,211.15 241.02,217.16 250.00,225.17
             264.60,238.19 259.35,240.94 270.00,241.00
             270.00,241.00 281.00,241.00 281.00,241.00
             316.36,240.58 346.11,222.86 357.25,188.00
             360.44,178.05 361.00,162.57 361.00,152.00
             361.00,152.00 391.00,152.00 391.00,152.00
             391.00,152.00 391.00,174.00 391.00,174.00
             390.90,182.16 388.56,191.26 386.00,199.00
             374.88,232.64 347.97,257.88 314.00,267.57
             298.23,272.07 287.03,271.00 271.00,271.00
             271.00,279.21 270.37,285.28 267.13,293.00
             265.00,298.05 261.98,303.75 258.53,308.00
             248.22,320.72 231.74,330.80 215.00,331.00
             215.00,331.00 193.00,331.00 193.00,331.00
             193.00,331.00 151.00,331.00 151.00,331.00
             151.00,331.00 151.00,301.00 151.00,301.00 Z
           M 248.00,422.00
           C 248.00,422.00 181.00,422.00 181.00,422.00
             181.00,422.00 181.00,482.00 181.00,482.00
             181.00,482.00 248.00,482.00 248.00,482.00
             248.00,482.00 242.75,468.00 242.75,468.00
             240.68,460.64 240.92,455.50 241.00,448.00
             241.16,434.73 245.06,432.30 248.00,422.00 Z
           M 361.00,422.00
           C 361.00,422.00 308.00,422.00 308.00,422.00
             298.49,422.05 288.36,423.63 281.04,430.21
             267.51,442.37 269.17,465.60 284.00,475.95
             290.97,480.81 299.68,481.96 308.00,482.00
             308.00,482.00 361.00,482.00 361.00,482.00
             361.00,482.00 361.00,422.00 361.00,422.00 Z" />
</svg>
