<svg width="0.713333in" height="0.786667in" viewBox="0 0 214 236">
  <path fill="white" stroke="none" stroke-width="1"
        d="M 136.00,3.47
           C 141.73,2.68 148.58,3.44 153.57,6.62
             172.04,18.36 162.34,50.75 139.00,48.81
             111.90,46.57 110.13,9.64 136.00,3.47 Z
           M 87.00,105.00
           C 88.37,97.65 97.91,77.96 102.53,72.00
             105.12,68.65 108.58,65.42 112.00,62.93
             128.41,50.96 154.53,52.17 168.82,67.09
             196.16,95.66 183.28,149.14 161.33,177.00
             151.59,189.36 139.72,198.43 124.00,201.08
             118.21,202.05 113.55,202.37 108.00,200.00
             132.94,190.02 153.66,167.38 160.10,141.00
             162.33,131.88 162.10,125.23 162.00,116.00
             161.85,103.23 156.42,78.19 142.00,74.67
             136.62,73.36 130.00,76.99 126.00,80.33
             114.95,89.57 112.46,103.55 107.00,116.00
             107.00,116.00 105.00,116.00 105.00,116.00
             99.60,109.52 94.72,107.58 87.00,105.00 Z
           M 47.00,61.59
           C 53.62,61.31 59.98,62.92 64.45,68.18
             74.41,79.93 67.78,99.54 52.00,101.45
             30.49,104.04 20.63,76.77 38.00,64.65
             41.08,62.50 43.42,62.11 47.00,61.59 Z
           M 129.00,208.00
           C 122.56,210.14 116.87,211.91 110.00,212.00
             110.00,212.00 106.00,212.00 106.00,212.00
             68.95,211.94 29.18,177.46 26.32,140.00
             25.19,125.12 35.93,110.99 50.00,106.78
             55.50,105.14 61.31,104.97 67.00,105.00
             77.25,105.05 87.44,107.83 96.00,113.60
             98.74,115.44 103.17,118.73 104.09,122.01
             104.97,125.16 102.18,133.79 101.00,137.00
             90.62,129.80 80.82,120.13 67.00,121.10
             63.87,121.31 60.79,122.32 58.04,123.82
             43.82,131.62 45.46,150.44 51.32,163.00
             53.72,168.13 57.42,173.52 60.89,178.00
             73.85,194.77 93.23,207.75 115.00,208.00
             119.00,208.04 125.84,206.95 129.00,208.00 Z" />
</svg>
