<svg width="677.392mm" height="677.392mm" viewBox="0 0 2400 2400">
  <path fill="gold" stroke="none" stroke-width="1"
        d="M 1185.00,1434.42
           C 1207.59,1431.67 1237.83,1439.15 1254.83,1454.61
             1259.27,1458.65 1266.27,1467.14 1270.20,1472.00
             1272.99,1475.46 1277.03,1480.86 1281.00,1482.82
             1285.34,1484.98 1290.58,1482.93 1295.00,1481.88
             1300.42,1480.60 1314.70,1478.34 1320.00,1478.34
             1346.91,1478.34 1378.19,1495.58 1393.84,1517.00
             1403.26,1529.89 1409.97,1547.94 1410.00,1564.00
             1410.04,1590.93 1404.92,1619.40 1391.42,1643.00
             1369.12,1681.99 1326.34,1720.63 1288.00,1743.80
             1273.62,1752.48 1258.44,1759.84 1243.00,1766.42
             1229.64,1772.12 1197.55,1784.40 1184.00,1785.98
             1167.67,1787.90 1161.31,1778.41 1153.00,1766.00
             1138.73,1744.68 1126.78,1722.57 1116.72,1699.00
             1093.53,1644.69 1083.08,1571.00 1101.34,1514.00
             1108.48,1491.74 1126.39,1461.06 1146.00,1448.10
             1157.88,1440.25 1171.11,1436.44 1185.00,1434.42 Z
           M 899.00,1569.21
           C 899.00,1569.21 905.00,1569.21 905.00,1569.21
             924.45,1568.78 946.56,1570.96 965.00,1577.34
             1027.02,1598.80 1076.82,1663.15 1105.25,1720.00
             1114.97,1739.44 1122.14,1760.13 1128.14,1781.00
             1130.02,1787.55 1134.20,1798.43 1131.86,1805.00
             1129.67,1811.19 1124.01,1815.44 1119.00,1819.34
             1108.90,1827.17 1093.50,1836.50 1082.00,1842.25
             1052.84,1856.83 1025.01,1869.75 993.00,1877.11
             993.00,1877.11 947.00,1883.17 947.00,1883.17
             947.00,1883.17 917.00,1886.00 917.00,1886.00
             917.00,1886.00 893.00,1883.28 893.00,1883.28
             893.00,1883.28 870.00,1880.10 870.00,1880.10
             832.43,1871.14 792.72,1844.27 783.13,1805.00
             781.66,1798.98 780.08,1790.14 780.00,1784.00
             780.00,1784.00 780.00,1777.00 780.00,1777.00
             780.03,1758.98 788.29,1736.53 800.18,1723.00
             805.90,1716.50 811.38,1712.33 818.00,1707.00
             821.51,1704.18 826.63,1700.29 828.26,1696.00
             830.01,1691.39 826.01,1674.35 826.00,1667.00
             825.98,1654.13 824.80,1639.30 828.44,1627.00
             835.22,1604.08 856.08,1583.33 878.00,1574.45
             886.77,1570.90 890.06,1570.72 899.00,1569.21 Z
           M 1369.00,1747.22
           C 1369.00,1747.22 1411.00,1747.22 1411.00,1747.22
             1419.14,1747.10 1432.83,1749.37 1441.00,1751.00
             1482.94,1759.39 1526.82,1780.54 1539.42,1825.00
             1541.23,1831.39 1542.92,1839.37 1543.00,1846.00
             1543.30,1872.34 1537.87,1893.05 1519.83,1913.00
             1515.09,1918.24 1508.96,1923.14 1503.00,1926.95
             1499.88,1928.94 1495.01,1931.30 1493.83,1935.04
             1492.88,1938.05 1496.72,1949.14 1497.58,1953.00
             1499.90,1963.52 1500.03,1974.35 1498.71,1985.00
             1494.45,2019.56 1471.98,2049.87 1438.00,2059.96
             1423.85,2064.17 1406.69,2064.17 1392.00,2064.00
             1368.01,2063.72 1341.54,2050.72 1322.00,2037.67
             1276.55,2007.31 1234.05,1949.18 1212.58,1899.00
             1205.82,1883.19 1192.68,1850.50 1192.04,1834.00
             1191.85,1829.14 1192.38,1825.18 1195.13,1821.04
             1198.07,1816.60 1203.60,1813.27 1208.00,1810.33
             1208.00,1810.33 1228.00,1797.00 1228.00,1797.00
             1251.92,1781.26 1301.88,1760.36 1330.00,1753.89
             1330.00,1753.89 1369.00,1747.22 1369.00,1747.22 Z
           M 1142.00,1846.44
           C 1156.54,1844.90 1163.35,1856.20 1170.31,1867.00
             1185.07,1889.90 1199.67,1913.10 1208.66,1939.00
             1229.38,1998.70 1243.27,2068.34 1218.80,2129.00
             1203.45,2167.04 1173.18,2197.93 1130.00,2198.00
             1130.00,2198.00 1120.00,2198.00 1120.00,2198.00
             1100.18,2197.76 1077.78,2188.20 1064.04,2174.00
             1064.04,2174.00 1049.08,2156.00 1049.08,2156.00
             1046.94,2153.44 1044.03,2149.61 1041.00,2148.21
             1037.04,2146.39 1031.05,2149.09 1027.00,2150.11
             1018.08,2152.33 1010.15,2153.10 1001.00,2153.00
             992.78,2152.90 977.72,2150.37 970.00,2147.56
             962.15,2144.71 955.73,2141.20 949.00,2136.25
             905.14,2104.00 907.06,2040.74 928.32,1996.00
             939.16,1973.18 962.38,1947.67 981.00,1930.83
             1026.29,1889.87 1081.30,1857.51 1142.00,1846.44 Z" />
</svg>
