<svg width="11.2083in" height="11.2361in" viewBox="0 0 807 809">
        <path fill="black"
        d="M 380.00,7.21
           C 380.00,7.21 423.00,7.21 423.00,7.21
             423.00,7.21 433.00,7.91 433.00,7.91
             475.04,10.80 515.85,20.10 555.00,35.80
             595.68,52.12 635.03,76.42 668.00,105.28
             791.05,213.00 836.07,386.10 781.31,540.00
             762.78,592.07 736.09,634.98 699.17,676.00
             669.66,708.79 629.57,739.96 590.00,759.75
             590.00,759.75 569.00,770.14 569.00,770.14
             525.44,789.53 477.70,801.96 430.00,804.04
             430.00,804.04 417.00,805.00 417.00,805.00
             417.00,805.00 390.00,805.00 390.00,805.00
             390.00,805.00 379.00,804.04 379.00,804.04
             345.11,802.56 311.18,795.73 279.00,785.00
             222.77,766.26 174.44,737.49 131.00,697.09
             131.00,697.09 121.01,688.00 121.01,688.00
             63.37,629.61 24.17,553.94 10.59,473.00
             10.59,473.00 6.00,438.00 6.00,438.00
             6.00,438.00 6.00,430.00 6.00,430.00
             6.00,430.00 5.00,420.00 5.00,420.00
             5.00,420.00 5.00,394.00 5.00,394.00
             5.00,394.00 5.96,381.00 5.96,381.00
             8.04,333.34 20.40,284.35 40.31,241.00
             86.48,140.43 169.44,64.63 274.00,28.34
             295.64,20.83 321.33,14.61 344.00,11.27
             344.00,11.27 369.00,8.17 369.00,8.17
             369.00,8.17 380.00,7.21 380.00,7.21 Z
           M 255.00,181.29
           C 233.26,184.44 228.63,187.37 213.00,203.00
             204.22,211.78 188.57,225.07 183.87,236.00
             178.65,248.16 179.98,255.20 180.00,268.00
             180.00,268.00 180.91,280.00 180.91,280.00
             182.71,306.12 187.05,331.79 194.29,357.00
             220.54,448.39 278.78,525.44 360.00,575.19
             391.06,594.22 423.05,607.36 458.00,617.29
             480.39,623.65 503.82,627.47 527.00,629.09
             527.00,629.09 537.00,630.00 537.00,630.00
             551.10,630.16 563.87,631.51 577.00,625.48
             584.48,622.05 600.34,604.66 607.00,598.00
             610.76,594.24 617.31,588.06 620.21,584.00
             627.97,573.17 629.15,561.80 629.00,549.00
             628.92,542.99 628.19,541.58 626.33,536.00
             620.75,519.25 609.32,505.67 593.00,498.31
             593.00,498.31 553.00,486.85 553.00,486.85
             541.19,483.65 526.04,478.30 514.00,478.74
             500.89,479.23 487.86,483.04 478.00,492.09
             478.00,492.09 463.00,507.00 463.00,507.00
             460.59,509.40 457.56,513.01 454.00,513.39
             450.63,513.74 437.69,508.86 434.00,507.40
             415.26,499.96 400.48,492.35 384.00,480.57
             351.02,457.00 328.18,429.11 310.25,393.00
             306.24,384.94 302.85,376.54 300.00,368.00
             299.13,365.38 296.87,359.54 297.27,357.00
             297.76,353.85 300.86,351.17 303.00,349.00
             303.00,349.00 316.83,335.00 316.83,335.00
             328.81,321.57 334.88,301.73 330.77,284.00
             330.77,284.00 320.42,246.00 320.42,246.00
             320.42,246.00 312.66,219.00 312.66,219.00
             305.15,201.46 291.87,190.28 274.00,184.33
             268.00,182.34 261.35,180.84 255.00,181.29 Z" />
</svg>
