<svg width="22.2222in" height="22.2222in" viewBox="0 0 1600 1600" onclick="window.open('https://www.facebook.com/jouwgeluk', '_blank')">
        <path fill="black"
        d="M 840.00,1600.00
           C 840.00,1600.00 362.00,1600.00 362.00,1600.00
             362.00,1600.00 202.00,1600.00 202.00,1600.00
             202.00,1600.00 122.00,1600.00 122.00,1600.00
             109.94,1599.86 94.16,1594.97 83.00,1590.44
             46.68,1575.73 19.35,1545.82 6.50,1509.00
             3.14,1499.38 0.02,1486.18 0.00,1476.00
             0.00,1476.00 0.00,339.00 0.00,339.00
             0.00,339.00 0.00,124.00 0.00,124.00
             0.02,113.82 3.14,100.62 6.50,91.00
             19.46,53.86 45.79,25.46 82.00,10.00
             94.41,4.70 110.46,0.02 124.00,0.00
             124.00,0.00 1261.00,0.00 1261.00,0.00
             1261.00,0.00 1476.00,0.00 1476.00,0.00
             1489.54,0.02 1505.59,4.70 1518.00,10.00
             1554.21,25.46 1580.54,53.86 1593.50,91.00
             1596.99,100.98 1599.98,113.42 1600.00,124.00
             1600.00,124.00 1600.00,1261.00 1600.00,1261.00
             1600.00,1261.00 1600.00,1476.00 1600.00,1476.00
             1599.98,1489.53 1595.49,1504.53 1590.44,1517.00
             1575.69,1553.41 1545.92,1580.62 1509.00,1593.50
             1499.02,1596.99 1486.58,1599.98 1476.00,1600.00
             1476.00,1600.00 1092.00,1600.00 1092.00,1600.00
             1092.00,1600.00 1092.00,962.00 1092.00,962.00
             1092.00,962.00 1348.00,962.00 1348.00,962.00
             1348.00,962.00 1348.00,730.00 1348.00,730.00
             1348.00,730.00 1092.00,730.00 1092.00,730.00
             1092.00,730.00 1092.00,670.00 1092.00,670.00
             1092.00,670.00 1093.00,655.00 1093.00,655.00
             1093.00,655.00 1093.00,639.00 1093.00,639.00
             1093.00,639.00 1094.00,625.00 1094.00,625.00
             1094.00,625.00 1095.83,596.00 1095.83,596.00
             1098.05,573.14 1099.06,556.67 1110.87,536.00
             1117.15,525.01 1125.54,515.19 1135.00,506.85
             1160.27,484.57 1186.36,477.40 1219.00,472.87
             1219.00,472.87 1247.00,470.00 1247.00,470.00
             1247.00,470.00 1269.00,469.00 1269.00,469.00
             1269.00,469.00 1286.00,469.00 1286.00,469.00
             1286.00,469.00 1301.00,470.00 1301.00,470.00
             1301.00,470.00 1326.00,471.17 1326.00,471.17
             1326.00,471.17 1348.00,473.00 1348.00,473.00
             1348.00,473.00 1348.00,239.00 1348.00,239.00
             1348.00,239.00 1333.00,238.00 1333.00,238.00
             1333.00,238.00 1312.00,237.00 1312.00,237.00
             1312.00,237.00 1292.00,237.00 1292.00,237.00
             1292.00,237.00 1275.00,236.00 1275.00,236.00
             1275.00,236.00 1236.00,236.00 1236.00,236.00
             1236.00,236.00 1225.00,236.98 1225.00,236.98
             1225.00,236.98 1209.00,236.98 1209.00,236.98
             1209.00,236.98 1198.00,237.96 1198.00,237.96
             1198.00,237.96 1141.00,243.58 1141.00,243.58
             1081.85,251.93 1022.19,268.27 973.00,303.43
             931.14,333.34 903.50,377.31 883.58,424.00
             864.04,469.79 853.81,510.89 846.73,560.00
             846.73,560.00 841.91,608.00 841.91,608.00
             841.91,608.00 840.96,618.00 840.96,618.00
             840.96,618.00 840.96,629.00 840.96,629.00
             840.96,629.00 840.00,641.00 840.00,641.00
             840.00,641.00 840.00,730.00 840.00,730.00
             840.00,730.00 668.00,730.00 668.00,730.00
             668.00,730.00 668.00,962.00 668.00,962.00
             668.00,962.00 840.00,962.00 840.00,962.00
             840.00,962.00 840.00,1600.00 840.00,1600.00 Z" />
</svg>
