<svg width="3.81944in" height="3.81944in" viewBox="0 0 275 275"
  onclick="window.open('https://www.instagram.com/jouw_gelukscoach', '_blank')">
  <path fill="black" stroke="none" stroke-width="0"
        d="M 111.00,127.00
           C 111.00,127.00 111.00,159.00 111.00,159.00
             111.01,161.54 110.68,165.48 112.60,167.40
             114.52,169.32 118.46,168.99 121.00,169.00
             121.00,169.00 138.00,169.00 138.00,169.00
             139.99,169.00 143.81,168.77 145.40,170.02
             147.93,172.03 147.00,185.42 147.00,189.00
             147.00,189.00 147.00,252.00 147.00,252.00
             147.00,252.00 147.00,267.00 147.00,267.00
             146.96,268.95 147.10,271.63 145.40,272.98
             143.81,274.23 139.99,274.00 138.00,274.00
             138.00,274.00 78.00,274.00 78.00,274.00
             66.70,274.00 50.70,274.59 40.00,271.57
             16.82,265.04 2.04,244.84 2.00,221.00
             2.00,221.00 2.00,54.00 2.00,54.00
             2.05,24.88 24.86,2.05 54.00,2.00
             54.00,2.00 221.00,2.00 221.00,2.00
             250.79,2.05 272.95,25.53 273.00,55.00
             273.00,55.00 273.00,194.00 273.00,194.00
             273.00,218.39 276.64,240.24 256.99,258.91
             238.38,276.59 213.69,274.00 190.00,274.00
             190.00,274.00 190.00,169.00 190.00,169.00
             190.00,169.00 216.00,169.00 216.00,169.00
             218.95,168.98 222.11,169.25 224.15,166.69
             225.94,164.42 226.32,158.05 226.72,155.00
             226.72,155.00 230.00,127.00 230.00,127.00
             230.00,127.00 190.00,127.00 190.00,127.00
             190.00,127.00 190.00,98.00 190.00,98.00
             190.06,93.12 190.59,88.97 194.34,85.39
             200.97,79.04 222.68,81.00 232.00,81.00
             232.00,81.00 232.00,53.00 232.00,53.00
             231.99,50.46 232.32,46.52 230.40,44.60
             228.33,42.53 223.75,43.05 221.00,42.99
             221.00,42.99 212.00,42.05 212.00,42.05
             212.00,42.05 199.00,42.05 199.00,42.05
             177.06,42.26 158.62,53.13 150.46,74.00
             145.21,87.43 147.26,105.54 147.00,120.00
             146.86,127.49 144.74,126.99 138.00,127.00
             138.00,127.00 111.00,127.00 111.00,127.00 Z" />
</svg>
