  <svg width="3.125in" height="3.125in" viewBox="0 0 225 225">
          <path fill="black"
        d="M 27.00,0.14
           C 27.00,0.14 83.00,0.14 83.00,0.14
             83.00,0.14 190.00,0.14 190.00,0.14
             202.92,0.02 215.85,3.09 221.81,16.00
             224.35,21.49 224.99,29.00 225.00,35.00
             225.00,35.00 225.00,190.00 225.00,190.00
             224.99,195.02 224.55,201.24 222.89,206.00
             217.54,221.41 202.52,224.98 188.00,225.00
             188.00,225.00 35.00,225.00 35.00,225.00
             30.41,224.99 23.32,224.51 19.00,223.09
             3.62,218.02 0.02,204.45 0.00,190.00
             0.00,190.00 0.00,35.00 0.00,35.00
             0.23,15.69 7.04,3.71 27.00,0.14 Z
           M 54.02,56.60
           C 46.03,61.13 47.63,70.83 60.00,71.00
             60.00,71.00 165.00,71.00 165.00,71.00
             178.17,70.82 177.32,60.94 172.85,57.60
             170.35,55.73 166.96,56.01 164.00,56.00
             164.00,56.00 91.00,56.00 91.00,56.00
             91.00,56.00 54.02,56.60 54.02,56.60 Z
           M 55.00,98.14
           C 49.09,100.84 46.53,107.16 52.15,111.26
             54.90,113.28 58.75,112.99 62.00,113.00
             62.00,113.00 165.00,113.00 165.00,113.00
             178.38,112.81 177.35,103.03 172.85,99.74
             170.10,97.72 166.25,98.01 163.00,98.14
             163.00,98.14 92.00,98.14 92.00,98.14
             92.00,98.14 55.00,98.14 55.00,98.14 Z
           M 55.02,140.14
           C 49.27,142.82 46.61,149.26 52.15,153.40
             54.65,155.27 58.04,154.99 61.00,155.00
             61.00,155.00 166.00,155.00 166.00,155.00
             176.99,154.79 177.57,146.43 173.57,142.43
             170.79,139.64 166.62,140.01 163.00,140.14
             163.00,140.14 92.00,140.14 92.00,140.14
             92.00,140.14 55.02,140.14 55.02,140.14 Z" />
</svg>
