<svg width="11.2222in" height="11.25in" viewBox="0 0 808 810">
        <path fill="black"
        d="M 383.00,4.21
           C 383.00,4.21 417.00,4.21 417.00,4.21
             417.00,4.21 444.00,5.91 444.00,5.91
             544.96,13.29 636.20,63.01 703.16,138.00
             729.46,167.45 752.18,200.03 768.69,236.00
             787.84,277.71 797.76,318.49 802.17,364.00
             802.17,364.00 803.09,378.00 803.09,378.00
             803.09,378.00 804.00,388.00 804.00,388.00
             804.00,388.00 804.00,418.00 804.00,418.00
             804.00,418.00 803.09,430.00 803.09,430.00
             803.09,430.00 801.83,450.00 801.83,450.00
             798.81,481.23 790.64,516.65 779.58,546.00
             740.39,649.89 649.47,741.65 545.00,779.95
             508.51,793.32 469.80,801.35 431.00,803.04
             431.00,803.04 418.00,804.00 418.00,804.00
             418.00,804.00 388.00,804.00 388.00,804.00
             388.00,804.00 378.00,803.09 378.00,803.09
             378.00,803.09 364.00,802.17 364.00,802.17
             318.49,797.76 277.71,787.84 236.00,768.69
             146.67,727.68 67.42,644.42 31.20,553.00
             15.72,513.91 6.79,471.96 4.96,430.00
             4.96,430.00 4.00,417.00 4.00,417.00
             4.00,417.00 4.00,391.00 4.00,391.00
             4.00,391.00 4.96,378.00 4.96,378.00
             7.14,328.10 19.47,279.39 40.31,234.00
             82.48,142.16 171.78,60.61 267.00,26.69
             293.25,17.34 321.34,10.73 349.00,7.28
             349.00,7.28 371.00,5.09 371.00,5.09
             371.00,5.09 383.00,4.21 383.00,4.21 Z
           M 599.00,620.00
           C 599.00,620.00 599.00,347.00 599.00,347.00
             599.00,345.13 599.13,341.97 598.43,340.29
             596.98,336.85 583.68,327.44 580.00,324.58
             580.00,324.58 521.00,278.79 521.00,278.79
             521.00,278.79 438.00,214.35 438.00,214.35
             438.00,214.35 416.00,197.21 416.00,197.21
             413.65,195.36 407.70,190.44 405.00,189.95
             400.97,189.22 395.08,194.97 392.00,197.35
             392.00,197.35 360.00,222.13 360.00,222.13
             360.00,222.13 245.00,311.42 245.00,311.42
             245.00,311.42 221.00,330.00 221.00,330.00
             212.79,336.45 209.02,336.44 209.00,347.00
             209.00,347.00 209.00,620.00 209.00,620.00
             209.00,620.00 343.00,620.00 343.00,620.00
             343.00,620.00 343.00,451.00 343.00,451.00
             343.00,451.00 465.00,451.00 465.00,451.00
             465.00,451.00 465.00,620.00 465.00,620.00
             465.00,620.00 599.00,620.00 599.00,620.00 Z" />
</svg>
