  <svg width="47.7122mm" height="47.7122mm" viewBox="0 0 512 512" onclick="window.open('https://www.instagram.com/jouw_gelukscoach', '_blank')">
          <path fill="black"
        d="M 125.00,0.11
           C 125.00,0.11 160.00,0.11 160.00,0.11
             160.00,0.11 224.00,0.11 224.00,0.11
             224.00,0.11 379.00,0.11 379.00,0.11
             431.44,0.08 485.88,40.98 503.00,90.00
             507.85,103.90 511.98,118.13 512.00,133.00
             512.00,133.00 512.00,379.00 512.00,379.00
             511.98,392.22 508.57,406.63 504.05,419.00
             489.30,459.36 459.36,489.30 419.00,504.05
             406.63,508.57 392.22,511.98 379.00,512.00
             379.00,512.00 133.00,512.00 133.00,512.00
             119.78,511.98 105.37,508.57 93.00,504.05
             52.64,489.30 22.70,459.36 7.95,419.00
             3.43,406.63 0.02,392.22 0.00,379.00
             0.00,379.00 0.00,133.00 0.00,133.00
             0.07,86.55 32.03,39.26 72.00,17.31
             90.53,7.14 104.39,3.54 125.00,0.11 Z
           M 132.00,46.10
           C 118.59,48.33 108.08,50.76 96.00,57.31
             67.85,72.57 46.38,104.48 46.00,137.00
             46.00,137.00 46.00,221.00 46.00,221.00
             46.00,221.00 46.00,373.00 46.00,373.00
             46.08,422.44 89.56,465.92 139.00,466.00
             139.00,466.00 373.00,466.00 373.00,466.00
             422.33,465.92 465.92,422.33 466.00,373.00
             466.00,373.00 466.00,139.00 466.00,139.00
             465.92,89.56 422.44,46.08 373.00,46.10
             373.00,46.10 214.00,46.10 214.00,46.10
             214.00,46.10 132.00,46.10 132.00,46.10 Z
           M 389.00,85.27
           C 391.32,85.14 392.61,84.95 395.00,85.27
             400.05,85.39 405.55,86.94 410.00,89.32
             435.89,103.21 431.54,143.59 403.00,151.24
             399.97,152.06 395.09,152.92 392.00,152.68
             371.53,151.05 359.77,137.15 360.00,117.00
             360.10,108.70 363.18,101.01 369.09,95.09
             374.86,89.32 381.17,86.90 389.00,85.27 Z
           M 241.00,124.21
           C 241.00,124.21 263.00,124.21 263.00,124.21
             277.31,124.02 293.77,128.25 307.00,133.60
             321.59,139.51 333.12,147.40 345.00,157.58
             354.28,165.53 362.91,176.51 369.20,187.00
             408.14,251.90 386.00,336.37 319.00,372.69
             294.07,386.21 274.67,388.32 247.00,388.00
             236.35,387.87 221.03,384.36 211.00,380.68
             171.26,366.12 142.63,336.21 129.52,296.00
             124.07,279.28 123.97,266.17 124.00,249.00
             124.05,218.10 140.43,183.65 162.04,162.04
             170.82,153.25 182.08,145.23 193.00,139.31
             209.59,130.31 222.64,127.20 241.00,124.21 Z
           M 248.00,170.28
           C 217.96,174.69 193.29,189.03 179.27,217.00
             156.73,261.98 176.83,317.11 224.00,335.80
             232.70,339.24 243.62,341.89 253.00,342.00
             267.41,342.16 278.76,340.01 292.00,334.14
             302.14,329.65 313.27,321.44 320.41,313.00
             353.75,273.60 348.25,215.17 305.00,185.35
             296.74,179.65 288.69,175.81 279.00,173.15
             268.79,170.35 258.56,169.30 248.00,170.28 Z" />
</svg>
