<svg width="3.81944in" height="3.81944in" viewBox="0 0 275 275"
  onclick="window.open('https://www.instagram.com/jouw_gelukscoach', '_blank')">
  <path fill="black" stroke="none" stroke-width="0"
        d="M 58.00,1.14
           C 58.00,1.14 97.00,1.14 97.00,1.14
             97.00,1.14 169.00,1.14 169.00,1.14
             189.63,1.00 218.13,-1.18 237.00,6.06
             259.98,14.89 272.96,38.17 273.00,62.00
             273.00,62.00 273.00,211.00 273.00,211.00
             272.94,247.69 247.33,271.94 211.00,272.00
             211.00,272.00 64.00,272.00 64.00,272.00
             26.75,271.94 2.06,245.91 2.00,209.00
             2.00,209.00 2.00,64.00 2.00,64.00
             2.12,39.38 13.11,17.94 36.00,7.12
             44.33,3.18 49.22,2.75 58.00,1.14 Z
           M 88.00,35.07
           C 81.57,36.36 74.73,38.34 69.00,41.51
             54.48,49.56 43.17,63.64 39.67,80.00
             37.50,90.16 38.00,103.50 38.00,114.00
             38.00,114.00 38.00,152.00 38.00,152.00
             38.00,176.10 35.15,197.95 51.47,218.00
             61.94,230.87 78.42,238.92 95.00,239.00
             95.00,239.00 118.00,239.00 118.00,239.00
             118.00,239.00 179.00,239.00 179.00,239.00
             211.19,238.95 236.85,213.15 237.00,181.00
             237.00,181.00 237.00,93.00 237.00,93.00
             236.99,85.01 236.09,79.49 233.19,72.00
             230.86,65.99 228.82,62.09 224.71,57.01
             214.77,44.73 199.12,35.19 183.00,35.07
             183.00,35.07 164.00,35.07 164.00,35.07
             164.00,35.07 130.00,35.07 130.00,35.07
             130.00,35.07 88.00,35.07 88.00,35.07 Z
           M 90.00,51.27
           C 90.00,51.27 131.00,51.27 131.00,51.27
             131.00,51.27 163.00,51.27 163.00,51.27
             169.15,51.00 180.45,50.61 186.00,51.27
             201.51,54.41 213.71,65.04 218.64,80.00
             220.58,85.87 220.99,89.89 221.00,96.00
             221.00,96.00 221.00,178.00 221.00,178.00
             220.96,204.97 202.96,222.96 176.00,223.00
             176.00,223.00 112.00,223.00 112.00,223.00
             93.78,223.00 78.66,223.98 65.18,208.99
             50.16,192.26 53.72,165.67 54.79,145.00
             54.79,145.00 54.00,132.00 54.00,132.00
             54.00,132.00 54.00,108.00 54.00,108.00
             54.00,86.75 54.79,67.96 76.00,56.31
             81.17,53.47 84.34,52.68 90.00,51.27 Z
           M 190.00,68.34
           C 173.17,73.24 178.72,96.89 196.00,93.77
             205.17,92.12 208.77,80.22 203.35,73.10
             199.82,68.47 195.41,67.76 190.00,68.34 Z
           M 131.00,82.29
           C 109.55,85.56 92.68,97.84 85.75,119.00
             74.96,151.93 97.84,190.57 134.00,191.00
             144.67,191.12 152.18,190.64 162.00,185.73
             184.00,174.73 192.27,155.47 192.00,132.00
             191.86,120.40 187.37,107.80 179.54,99.17
             167.61,86.02 148.30,80.67 131.00,82.29 Z
           M 129.00,102.47
           C 141.59,100.71 157.01,102.59 165.61,113.04
             184.20,135.59 165.76,174.07 136.00,171.82
             125.93,171.05 115.65,166.30 109.63,158.00
             95.20,138.07 104.44,108.31 129.00,102.47 Z" />
</svg>
