<svg width="116.931mm" height="124.603mm" viewBox="0 0 442 471">
        <path fill="black"
        d="M 209.00,6.21
           C 209.00,6.21 217.00,6.21 217.00,6.21
             272.67,5.91 331.10,29.14 348.41,87.00
             350.66,94.52 352.91,106.21 353.00,114.00
             353.16,128.07 352.55,140.23 349.11,154.00
             349.11,154.00 345.31,167.00 345.31,167.00
             344.50,169.34 342.88,172.54 343.55,175.00
             344.21,177.42 347.15,180.12 348.83,182.00
             352.52,186.13 356.09,190.47 359.28,195.00
             369.02,208.85 377.82,224.81 382.97,241.00
             404.59,308.96 385.61,380.92 331.00,427.70
             318.33,438.55 303.24,447.40 288.00,454.14
             265.25,464.20 239.74,468.29 215.00,468.00
             215.00,468.00 206.00,467.17 206.00,467.17
             182.92,464.86 164.92,460.71 144.00,450.25
             83.90,420.20 47.22,360.19 48.00,293.00
             48.17,278.40 51.88,256.94 56.34,243.00
             61.85,225.81 69.79,210.81 80.02,196.00
             83.41,191.10 87.21,186.44 91.17,182.00
             92.85,180.12 95.79,177.42 96.45,175.00
             97.09,172.67 92.92,161.20 92.00,158.00
             89.35,148.77 87.01,134.56 87.00,125.00
             86.98,112.55 87.25,102.17 90.71,90.00
             102.26,49.31 132.35,24.54 172.00,12.72
             180.82,10.09 189.87,8.38 199.00,7.28
             199.00,7.28 209.00,6.21 209.00,6.21 Z
           M 210.00,23.14
           C 194.84,25.46 183.83,26.31 169.00,31.69
             139.79,42.29 116.03,63.51 107.43,94.00
             104.39,104.77 103.87,113.93 104.00,125.00
             104.14,137.05 107.41,150.65 111.34,162.00
             112.80,166.20 117.51,175.03 116.22,179.00
             115.13,182.34 110.51,186.41 108.04,189.00
             108.04,189.00 95.48,204.00 95.48,204.00
             83.56,220.01 74.25,239.55 69.65,259.00
             61.07,295.32 65.07,332.52 81.81,366.00
             105.33,413.05 153.60,445.89 206.00,450.08
             206.00,450.08 216.00,451.00 216.00,451.00
             239.66,451.27 263.44,446.56 285.00,436.69
             352.86,405.62 387.30,330.77 370.35,259.00
             365.75,239.55 356.44,220.01 344.52,204.00
             341.03,199.30 335.05,192.19 330.99,188.00
             328.46,185.40 324.18,181.67 323.53,178.00
             322.98,174.83 328.03,163.86 329.33,160.00
             332.90,149.39 335.95,135.19 336.00,124.00
             336.06,110.18 334.80,97.97 329.55,85.00
             312.67,43.34 265.72,23.07 223.00,23.14
             223.00,23.14 210.00,23.14 210.00,23.14 Z
           M 202.00,44.21
           C 202.00,44.21 231.00,44.21 231.00,44.21
             264.99,44.16 304.38,64.07 313.37,99.00
             314.79,104.52 315.93,109.26 316.00,115.00
             316.14,127.64 315.77,137.74 311.98,150.00
             310.63,154.34 309.28,159.55 304.96,161.82
             300.16,164.35 295.28,161.38 291.00,159.25
             280.22,153.87 275.69,151.65 264.00,148.02
             252.15,144.36 240.30,142.76 228.00,141.91
             228.00,141.91 220.00,141.08 220.00,141.08
             220.00,141.08 212.00,141.91 212.00,141.91
             200.57,142.70 190.12,144.11 179.00,147.15
             168.60,150.00 160.60,153.45 151.00,158.25
             146.68,160.40 140.95,164.13 136.02,162.26
             131.79,160.65 130.35,156.93 129.00,153.00
             126.38,145.36 124.10,134.06 124.00,126.00
             123.87,114.22 123.73,107.51 127.52,96.00
             138.70,62.07 169.51,49.33 202.00,44.21 Z
           M 296.00,142.00
           C 302.15,125.15 299.71,101.27 288.48,87.00
             281.47,78.08 272.31,72.29 262.00,67.87
             252.78,63.93 238.03,61.02 228.00,61.00
             228.00,61.00 212.00,61.00 212.00,61.00
             187.95,61.04 157.66,72.43 146.37,95.00
             141.27,105.21 140.87,113.93 141.00,125.00
             141.07,130.75 142.03,136.60 144.00,142.00
             163.35,133.79 186.73,125.25 208.00,125.00
             208.00,125.00 228.00,125.00 228.00,125.00
             252.58,125.28 273.66,132.53 296.00,142.00 Z
           M 213.00,185.42
           C 216.46,185.00 220.70,184.57 223.89,186.31
             228.46,188.81 229.37,196.00 225.69,199.69
             222.84,202.53 216.95,202.04 213.00,202.58
             202.77,203.97 195.73,204.98 186.00,209.01
             151.35,223.38 126.43,256.98 126.00,295.00
             125.62,329.11 145.02,360.31 174.00,377.55
             179.73,380.96 186.62,383.85 193.00,385.80
             196.12,386.75 202.34,387.91 204.79,389.44
             210.29,392.86 210.28,401.70 203.96,404.26
             200.42,405.70 195.56,404.51 192.00,403.63
             182.95,401.38 174.11,398.04 166.00,393.42
             157.02,388.31 148.37,382.30 141.04,374.96
             122.02,355.94 109.13,326.00 109.00,299.00
             108.79,255.20 130.98,215.77 171.00,196.26
             187.19,188.37 195.97,187.84 213.00,185.42 Z" />
</svg>
