<svg width="11.1667in" height="11.1389in" viewBox="0 0 804 802">
        <path fill="black"
        d="M 375.00,5.21
           C 375.00,5.21 423.00,5.21 423.00,5.21
             423.00,5.21 445.00,6.84 445.00,6.84
             483.45,10.95 516.09,19.24 552.00,33.60
             590.43,48.97 629.87,72.89 661.00,100.15
             700.65,134.88 733.60,176.82 757.19,224.00
             781.33,272.27 793.42,322.43 797.09,376.00
             797.09,376.00 798.00,388.00 798.00,388.00
             798.00,388.00 798.00,413.00 798.00,413.00
             798.00,413.00 797.09,423.00 797.09,423.00
             797.09,423.00 795.15,447.00 795.15,447.00
             785.40,528.66 752.00,602.60 697.16,664.00
             668.71,695.86 632.64,725.29 595.00,745.69
             551.61,769.21 506.03,785.11 457.00,791.72
             457.00,791.72 420.00,795.00 420.00,795.00
             420.00,795.00 383.00,795.00 383.00,795.00
             383.00,795.00 373.00,794.09 373.00,794.09
             340.18,791.79 308.23,785.41 277.00,775.00
             234.88,760.96 195.06,739.89 160.00,712.58
             115.25,677.71 80.26,635.84 53.31,586.00
             -2.75,482.34 -7.72,353.17 38.43,245.00
             82.16,142.48 166.09,64.02 271.00,26.69
             294.50,18.33 321.32,12.09 346.00,8.43
             346.00,8.43 375.00,5.21 375.00,5.21 Z
           M 193.00,216.35
           C 183.69,219.40 179.95,228.08 178.01,237.00
             176.45,244.23 177.00,253.46 177.00,261.00
             177.00,261.00 177.00,299.00 177.00,299.00
             177.00,299.00 177.00,528.00 177.00,528.00
             177.00,528.00 177.00,542.00 177.00,542.00
             177.00,554.02 175.71,569.85 179.70,581.00
             181.72,586.66 185.14,592.55 191.00,594.85
             194.23,596.12 197.60,595.99 201.00,596.00
             201.00,596.00 233.00,596.00 233.00,596.00
             237.65,596.00 244.92,596.59 249.00,594.55
             259.05,589.50 261.98,576.23 262.00,566.00
             262.00,566.00 262.00,297.00 262.00,297.00
             262.00,297.00 262.00,245.00 262.00,245.00
             261.95,234.77 258.04,220.11 247.00,216.35
             244.59,215.89 241.53,216.00 239.00,216.35
             239.00,216.35 193.00,216.35 193.00,216.35 Z
           M 561.00,216.20
           C 552.20,219.23 548.09,227.42 546.29,236.00
             543.99,246.89 545.00,277.15 545.00,290.00
             545.00,290.00 545.00,519.00 545.00,519.00
             545.00,519.00 545.00,553.00 545.00,553.00
             545.00,560.68 544.46,568.47 546.24,576.00
             549.26,588.86 554.20,595.98 568.00,596.00
             568.00,596.00 608.00,596.00 608.00,596.00
             624.44,595.78 628.98,578.61 629.00,565.00
             629.00,565.00 629.00,297.00 629.00,297.00
             629.00,297.00 629.00,245.00 629.00,245.00
             628.88,235.25 624.91,221.02 615.00,217.01
             612.14,215.85 609.02,216.00 606.00,216.20
             606.00,216.20 561.00,216.20 561.00,216.20 Z
           M 123.00,280.20
           C 109.56,284.60 106.15,300.47 106.00,313.00
             106.00,313.00 106.00,405.00 106.00,405.00
             106.00,405.00 106.00,498.00 106.00,498.00
             106.14,509.43 109.27,527.50 122.00,531.35
             124.49,532.11 127.41,532.00 130.00,532.00
             135.08,532.01 146.75,532.58 151.00,531.03
             163.24,526.59 165.98,509.36 166.00,498.00
             166.00,498.00 166.00,312.00 166.00,312.00
             165.87,301.21 162.40,285.11 151.00,280.97
             147.93,279.85 145.19,280.01 142.00,280.20
             142.00,280.20 123.00,280.20 123.00,280.20 Z
           M 657.00,280.16
           C 643.54,283.68 640.15,299.88 640.00,312.00
             640.00,312.00 640.00,406.00 640.00,406.00
             640.00,406.00 640.00,500.00 640.00,500.00
             640.13,510.51 643.19,526.23 654.00,530.77
             657.27,532.15 660.54,531.99 664.00,532.00
             669.27,532.01 680.55,532.65 685.00,530.77
             696.74,525.84 698.98,508.18 699.00,497.00
             699.00,497.00 699.00,312.00 699.00,312.00
             698.87,301.61 695.65,285.70 685.00,281.23
             681.73,279.85 678.46,280.01 675.00,280.16
             675.00,280.16 657.00,280.16 657.00,280.16 Z
           M 98.00,339.00
           C 81.08,340.42 70.80,351.29 63.78,366.00
             52.85,388.92 53.08,418.53 62.06,442.00
             68.20,458.02 80.12,471.50 98.00,473.00
             98.00,473.00 98.00,339.00 98.00,339.00 Z
           M 707.00,473.00
           C 725.47,470.51 735.05,459.75 741.99,443.00
             750.92,421.45 751.34,392.74 742.80,371.00
             736.33,354.54 725.82,340.58 707.00,339.00
             707.00,339.00 707.00,473.00 707.00,473.00 Z
           M 536.00,349.00
           C 536.00,349.00 505.00,350.00 505.00,350.00
             505.00,350.00 449.00,350.00 449.00,350.00
             449.00,350.00 269.00,350.00 269.00,350.00
             269.00,350.00 269.00,452.00 269.00,452.00
             269.00,452.00 537.00,452.00 537.00,452.00
             537.00,452.00 537.00,383.00 537.00,383.00
             537.00,383.00 536.00,349.00 536.00,349.00 Z" />
</svg>
