<svg width="4.55556in" height="4.55556in" viewBox="0 0 328 328">
  <path fill="white" stroke="none" stroke-width="1"
        d="M 160.00,127.00
           C 164.29,118.21 171.46,109.31 177.95,102.00
             196.30,81.33 215.84,67.03 241.00,55.70
             249.27,51.97 256.29,49.49 265.00,47.16
             268.56,45.98 272.22,44.29 275.21,47.16
             277.23,49.37 281.69,58.88 283.25,62.00
             289.86,75.26 294.48,89.48 297.40,104.00
             311.48,173.99 285.20,245.63 228.00,288.87
             213.11,300.13 195.73,309.74 178.00,315.67
             172.75,317.42 163.27,321.18 158.00,320.66
             153.12,320.18 140.86,315.94 136.00,314.00
             121.53,308.23 109.82,302.40 97.00,293.41
             57.71,265.87 31.07,226.09 21.60,179.00
             20.01,171.10 18.04,159.95 18.00,152.00
             18.00,152.00 18.00,130.00 18.00,130.00
             18.17,116.13 22.63,96.23 27.00,83.00
             34.11,61.47 43.43,45.00 57.13,27.00
             60.15,23.03 70.16,10.79 74.00,8.77
             78.59,6.36 92.13,11.93 97.00,13.81
             113.31,20.11 128.96,28.18 143.00,38.63
             146.69,41.37 156.17,48.74 158.69,52.01
             163.73,58.57 159.99,68.01 151.00,66.76
             145.42,65.99 136.86,57.36 132.00,53.65
             122.89,46.70 109.56,38.94 99.00,34.43
             95.20,32.80 84.69,27.79 81.00,29.20
             77.20,30.66 70.29,40.43 67.63,44.00
             56.70,58.69 46.20,80.23 41.63,98.00
             38.77,109.12 36.02,121.50 36.00,133.00
             36.00,133.00 36.00,150.00 36.00,150.00
             36.06,187.76 57.71,233.68 84.75,259.49
             95.29,269.54 107.26,279.03 120.00,286.14
             120.00,286.14 147.00,299.00 147.00,299.00
             147.00,299.00 142.69,287.00 142.69,287.00
             142.69,287.00 136.88,267.00 136.88,267.00
             132.73,249.49 131.97,235.82 132.00,218.00
             132.02,203.97 136.06,182.42 140.34,169.00
             140.34,169.00 145.28,155.00 145.28,155.00
             146.54,152.04 148.65,148.28 147.98,145.00
             147.25,141.44 139.68,130.36 137.26,127.00
             125.46,110.68 110.69,96.87 94.00,85.67
             88.43,81.93 82.98,78.78 77.00,75.75
             73.41,73.93 69.11,72.03 67.60,67.98
             65.31,61.86 69.50,55.91 76.00,56.15
             80.98,56.32 93.40,63.43 98.00,66.20
             116.99,77.67 133.93,92.50 147.58,110.00
             147.58,110.00 160.00,127.00 160.00,127.00 Z
           M 265.00,66.00
           C 235.47,74.81 206.16,94.98 187.00,119.00
             183.07,123.93 171.29,139.30 170.48,145.00
             169.91,149.03 175.68,161.35 177.31,166.00
             181.33,177.54 184.65,192.82 185.83,205.00
             187.84,225.69 186.93,244.70 182.12,265.00
             182.12,265.00 176.00,286.00 176.00,286.00
             176.00,286.00 172.00,298.00 172.00,298.00
             179.14,296.88 185.60,293.45 192.00,290.25
             206.92,282.77 221.17,272.77 233.00,261.00
             273.73,220.47 291.12,165.46 280.00,109.00
             277.33,95.45 271.79,77.97 265.00,66.00 Z
           M 157.00,70.64
           C 163.96,69.26 170.11,70.88 174.30,77.02
             179.96,85.30 175.78,97.74 166.00,100.43
             154.37,103.64 145.38,95.96 146.04,84.00
             146.20,81.25 146.63,79.40 148.15,77.04
             150.50,73.40 153.11,72.11 157.00,70.64 Z
           M 160.00,169.00
           C 155.90,174.73 154.44,185.04 152.84,192.00
             148.62,211.10 149.04,236.81 152.84,256.00
             154.06,262.42 156.32,273.86 160.00,279.00
             169.14,251.06 171.20,225.00 166.73,196.00
             166.73,196.00 160.00,169.00 160.00,169.00 Z
           M 172.00,298.00
           C 172.00,298.00 171.00,298.00 171.00,298.00
             171.00,298.00 172.00,299.00 172.00,299.00
             172.00,299.00 172.00,298.00 172.00,298.00 Z" />
</svg>
