<svg width="677.392mm" height="677.392mm" viewBox="0 0 2400 2400">
  <path fill="black" stroke="none" stroke-width="1"
        d="M 1356.00,2295.00
           C 1356.00,2295.00 1333.00,2298.73 1333.00,2298.73
             1333.00,2298.73 1282.00,2304.83 1282.00,2304.83
             1282.00,2304.83 1233.00,2307.00 1233.00,2307.00
             1233.00,2307.00 1218.00,2308.16 1218.00,2308.16
             1218.00,2308.16 1204.00,2308.16 1204.00,2308.16
             1204.00,2308.16 1163.00,2308.16 1163.00,2308.16
             1163.00,2308.16 1149.00,2307.00 1149.00,2307.00
             1149.00,2307.00 1121.00,2305.17 1121.00,2305.17
             1121.00,2305.17 1087.00,2302.83 1087.00,2302.83
             1087.00,2302.83 1028.00,2294.42 1028.00,2294.42
             1028.00,2294.42 1001.00,2290.57 1001.00,2290.57
             947.69,2281.62 886.18,2265.43 835.00,2248.00
             711.04,2205.77 594.12,2142.29 492.00,2060.20
             371.15,1963.05 267.42,1836.91 196.26,1699.00
             147.41,1604.32 113.08,1504.40 92.20,1400.00
             84.57,1361.86 74.44,1302.07 74.00,1264.00
             74.00,1264.00 71.00,1224.00 71.00,1224.00
             71.00,1224.00 71.00,1188.00 71.00,1188.00
             71.00,1188.00 70.00,1173.00 70.00,1173.00
             70.00,1173.00 71.00,1145.00 71.00,1145.00
             71.00,1145.00 72.00,1129.00 72.00,1129.00
             72.00,1129.00 72.00,1115.00 72.00,1115.00
             72.00,1115.00 72.96,1104.00 72.96,1104.00
             74.20,1075.60 77.67,1047.16 81.73,1019.00
             92.55,943.96 109.80,872.44 135.31,801.00
             182.12,669.89 250.04,550.82 340.73,445.00
             437.32,332.30 544.85,248.69 675.00,178.31
             675.00,178.31 718.00,157.26 718.00,157.26
             797.07,118.99 894.83,88.43 981.00,71.20
             1021.97,63.01 1079.74,53.48 1121.00,53.00
             1121.00,53.00 1131.00,52.09 1131.00,52.09
             1131.00,52.09 1153.00,50.91 1153.00,50.91
             1153.00,50.91 1165.00,50.00 1165.00,50.00
             1165.00,50.00 1227.00,50.00 1227.00,50.00
             1227.00,50.00 1242.00,51.00 1242.00,51.00
             1242.00,51.00 1257.00,51.00 1257.00,51.00
             1257.00,51.00 1289.00,53.83 1289.00,53.83
             1289.00,53.83 1313.00,55.17 1313.00,55.17
             1313.00,55.17 1347.00,59.72 1347.00,59.72
             1420.74,69.34 1493.87,85.35 1564.00,110.31
             1564.00,110.31 1601.00,123.42 1601.00,123.42
             1634.09,135.91 1666.20,150.35 1698.00,165.74
             1698.00,165.74 1710.00,171.26 1710.00,171.26
             1796.02,215.35 1885.29,275.41 1957.00,340.17
             1957.00,340.17 1991.00,372.99 1991.00,372.99
             1991.00,372.99 2003.96,385.00 2003.96,385.00
             2003.96,385.00 2023.09,406.00 2023.09,406.00
             2153.98,546.51 2244.33,710.40 2293.12,896.00
             2304.07,937.67 2312.65,985.24 2318.28,1028.00
             2318.28,1028.00 2325.00,1085.00 2325.00,1085.00
             2325.00,1085.00 2328.00,1136.00 2328.00,1136.00
             2328.00,1136.00 2329.00,1153.00 2329.00,1153.00
             2329.00,1153.00 2329.00,1198.00 2329.00,1198.00
             2329.00,1198.00 2327.00,1227.00 2327.00,1227.00
             2327.00,1227.00 2327.00,1242.00 2327.00,1242.00
             2327.00,1242.00 2325.09,1264.00 2325.09,1264.00
             2323.08,1293.17 2319.92,1322.06 2315.42,1351.00
             2289.97,1514.92 2229.13,1673.30 2136.33,1811.00
             2102.69,1860.92 2065.92,1905.98 2024.91,1950.00
             2024.91,1950.00 1998.00,1977.00 1998.00,1977.00
             1998.00,1977.00 1959.00,2015.83 1959.00,2015.83
             1922.52,2048.84 1882.51,2080.11 1842.00,2108.02
             1813.76,2127.49 1784.86,2145.70 1755.00,2162.58
             1755.00,2162.58 1718.00,2182.31 1718.00,2182.31
             1689.59,2197.67 1646.39,2218.20 1616.00,2228.33
             1616.00,2228.33 1568.00,2244.33 1568.00,2244.33
             1561.27,2246.58 1547.75,2251.28 1541.00,2250.89
             1530.18,2250.27 1521.78,2240.02 1526.60,2234.65
             1529.25,2231.69 1546.23,2227.46 1551.00,2225.98
             1551.00,2225.98 1590.00,2213.34 1590.00,2213.34
             1590.00,2213.34 1614.00,2205.55 1614.00,2205.55
             1672.57,2182.31 1739.03,2147.75 1792.00,2113.69
             1854.49,2073.52 1912.31,2028.39 1966.00,1977.04
             1966.00,1977.04 1976.00,1967.99 1976.00,1967.99
             1976.00,1967.99 1997.04,1946.00 1997.04,1946.00
             1997.04,1946.00 2009.91,1933.00 2009.91,1933.00
             2096.48,1840.08 2168.76,1728.85 2218.57,1612.00
             2218.57,1612.00 2237.05,1563.00 2237.05,1563.00
             2250.54,1526.82 2263.14,1490.48 2272.63,1453.00
             2284.09,1407.71 2292.94,1361.36 2298.72,1315.00
             2298.72,1315.00 2302.17,1278.00 2302.17,1278.00
             2302.17,1278.00 2305.00,1240.00 2305.00,1240.00
             2305.00,1240.00 2306.00,1223.00 2306.00,1223.00
             2306.00,1223.00 2306.00,1205.00 2306.00,1205.00
             2306.00,1205.00 2307.26,1180.00 2307.26,1180.00
             2307.26,1180.00 2306.00,1160.00 2306.00,1160.00
             2306.00,1160.00 2306.00,1129.00 2306.00,1129.00
             2306.00,1129.00 2304.09,1105.00 2304.09,1105.00
             2304.09,1105.00 2302.83,1080.00 2302.83,1080.00
             2302.83,1080.00 2298.15,1042.00 2298.15,1042.00
             2289.20,967.14 2270.58,886.03 2245.31,815.00
             2245.31,815.00 2230.42,776.00 2230.42,776.00
             2188.06,664.62 2116.80,546.33 2038.15,457.00
             2038.15,457.00 2005.91,421.00 2005.91,421.00
             2005.91,421.00 1974.00,388.99 1974.00,388.99
             1974.00,388.99 1955.00,370.09 1955.00,370.09
             1882.39,302.44 1801.78,245.09 1714.00,198.78
             1640.55,160.03 1554.54,126.76 1474.00,106.37
             1474.00,106.37 1394.00,89.58 1394.00,89.58
             1394.00,89.58 1362.00,83.43 1362.00,83.43
             1362.00,83.43 1331.00,79.72 1331.00,79.72
             1331.00,79.72 1303.00,76.17 1303.00,76.17
             1303.00,76.17 1280.00,74.91 1280.00,74.91
             1280.00,74.91 1254.00,72.91 1254.00,72.91
             1254.00,72.91 1244.00,72.00 1244.00,72.00
             1244.00,72.00 1222.00,72.00 1222.00,72.00
             1222.00,72.00 1210.00,71.05 1210.00,71.05
             1210.00,71.05 1193.00,71.05 1193.00,71.05
             1193.00,71.05 1180.00,72.00 1180.00,72.00
             1180.00,72.00 1158.00,72.00 1158.00,72.00
             1158.00,72.00 1146.00,72.91 1146.00,72.91
             1146.00,72.91 1112.00,75.00 1112.00,75.00
             1112.00,75.00 1040.00,83.85 1040.00,83.85
             997.59,88.93 949.30,99.66 908.00,110.85
             865.44,122.37 822.57,136.07 782.00,153.43
             782.00,153.43 747.00,169.69 747.00,169.69
             747.00,169.69 684.00,199.31 684.00,199.31
             594.88,247.51 518.22,301.79 444.00,370.91
             444.00,370.91 420.00,393.00 420.00,393.00
             420.00,393.00 407.96,406.00 407.96,406.00
             407.96,406.00 387.09,427.00 387.09,427.00
             387.09,427.00 361.72,456.00 361.72,456.00
             240.01,595.97 157.32,764.08 117.58,945.00
             109.17,983.28 103.00,1022.04 98.84,1061.00
             98.84,1061.00 94.91,1105.00 94.91,1105.00
             94.91,1105.00 94.00,1115.00 94.00,1115.00
             94.00,1115.00 94.00,1127.00 94.00,1127.00
             94.00,1127.00 92.00,1155.00 92.00,1155.00
             92.00,1155.00 92.00,1210.00 92.00,1210.00
             92.00,1210.00 93.96,1234.00 93.96,1234.00
             93.96,1234.00 93.96,1242.00 93.96,1242.00
             93.96,1242.00 95.96,1262.00 95.96,1262.00
             95.96,1262.00 95.96,1275.00 95.96,1275.00
             95.96,1275.00 101.87,1326.00 101.87,1326.00
             106.64,1360.26 112.91,1394.28 120.65,1428.00
             177.14,1674.13 319.90,1896.30 519.00,2051.42
             558.13,2081.91 625.29,2128.75 669.00,2150.75
             669.00,2150.75 730.00,2181.69 730.00,2181.69
             774.68,2202.21 823.04,2221.38 870.00,2235.98
             936.00,2256.49 1004.22,2271.81 1073.00,2279.16
             1073.00,2279.16 1115.00,2283.09 1115.00,2283.09
             1115.00,2283.09 1125.00,2284.00 1125.00,2284.00
             1125.00,2284.00 1143.00,2285.04 1143.00,2285.04
             1143.00,2285.04 1159.00,2285.04 1159.00,2285.04
             1159.00,2285.04 1171.00,2286.00 1171.00,2286.00
             1171.00,2286.00 1234.00,2286.00 1234.00,2286.00
             1234.00,2286.00 1308.00,2279.83 1308.00,2279.83
             1308.00,2279.83 1336.00,2277.00 1336.00,2277.00
             1349.36,2276.85 1355.68,2280.84 1356.00,2295.00 Z
           M 1625.00,1003.00
           C 1614.29,1009.25 1609.30,1019.28 1600.96,1028.00
             1600.96,1028.00 1586.04,1043.00 1586.04,1043.00
             1586.04,1043.00 1549.00,1080.91 1549.00,1080.91
             1536.90,1092.18 1521.01,1103.85 1507.00,1112.68
             1462.83,1140.53 1417.56,1156.61 1365.00,1156.00
             1349.53,1155.82 1326.10,1150.48 1312.00,1144.14
             1312.00,1144.14 1288.00,1131.63 1288.00,1131.63
             1282.71,1130.10 1275.38,1130.34 1270.00,1129.83
             1270.00,1129.83 1237.00,1127.09 1237.00,1127.09
             1237.00,1127.09 1182.00,1123.91 1182.00,1123.91
             1182.00,1123.91 1147.00,1122.00 1147.00,1122.00
             1147.00,1122.00 1130.00,1121.00 1130.00,1121.00
             1130.00,1121.00 1112.00,1120.00 1112.00,1120.00
             1112.00,1120.00 1097.00,1120.00 1097.00,1120.00
             1097.00,1120.00 1082.00,1119.00 1082.00,1119.00
             1082.00,1119.00 1066.00,1119.00 1066.00,1119.00
             1066.00,1119.00 1034.00,1117.00 1034.00,1117.00
             1034.00,1117.00 1005.00,1117.00 1005.00,1117.00
             1005.00,1117.00 988.00,1116.00 988.00,1116.00
             988.00,1116.00 841.00,1116.00 841.00,1116.00
             841.00,1116.00 759.00,1116.00 759.00,1116.00
             759.00,1116.00 744.00,1117.00 744.00,1117.00
             744.00,1117.00 705.00,1117.00 705.00,1117.00
             705.00,1117.00 688.00,1118.00 688.00,1118.00
             688.00,1118.00 653.00,1119.09 653.00,1119.09
             653.00,1119.09 629.00,1121.00 629.00,1121.00
             619.89,1121.10 610.47,1120.01 602.00,1124.14
             591.97,1129.03 582.54,1143.37 575.54,1152.00
             575.54,1152.00 552.28,1179.00 552.28,1179.00
             552.28,1179.00 528.91,1206.00 528.91,1206.00
             488.50,1249.39 439.73,1293.11 384.00,1315.40
             365.19,1322.93 335.20,1330.76 315.00,1331.00
             315.00,1331.00 294.00,1331.00 294.00,1331.00
             266.09,1330.96 224.00,1316.87 201.00,1301.33
             175.92,1284.39 164.55,1259.01 178.76,1231.00
             183.62,1221.41 187.48,1217.49 195.00,1210.00
             204.18,1200.87 214.85,1193.54 226.00,1187.01
             259.13,1167.62 298.83,1154.42 336.00,1145.13
             375.52,1135.25 415.58,1128.27 456.00,1123.28
             456.00,1123.28 533.00,1115.17 533.00,1115.17
             545.38,1113.99 560.83,1115.66 572.00,1109.27
             583.01,1102.97 596.06,1081.14 603.05,1070.00
             603.05,1070.00 656.99,983.00 656.99,983.00
             656.99,983.00 705.26,894.00 705.26,894.00
             705.26,894.00 733.31,837.00 733.31,837.00
             757.74,783.79 781.24,730.47 797.29,674.00
             803.81,651.08 810.04,627.95 810.00,604.00
             809.97,582.35 798.36,564.04 775.00,564.00
             775.00,564.00 768.00,564.00 768.00,564.00
             758.75,564.11 744.91,568.06 736.00,571.00
             736.00,571.00 675.00,596.72 675.00,596.72
             628.48,616.80 564.84,658.49 524.00,689.13
             495.11,710.80 467.56,733.44 442.00,759.00
             442.00,759.00 423.58,778.00 423.58,778.00
             401.20,803.83 378.22,830.06 367.00,863.00
             364.35,870.80 359.62,884.98 360.09,893.00
             361.08,909.96 373.55,921.77 388.00,928.74
             411.13,939.91 449.15,936.32 474.00,932.25
             482.72,930.82 493.37,928.10 502.00,928.00
             502.00,928.00 522.00,928.00 522.00,928.00
             524.97,928.00 532.19,927.57 533.26,931.23
             533.59,932.39 533.18,933.44 532.38,934.28
             529.88,936.93 513.42,938.40 509.00,939.00
             509.00,939.00 444.00,947.00 444.00,947.00
             444.00,947.00 419.00,947.00 419.00,947.00
             411.00,946.90 395.92,944.35 388.00,942.37
             361.50,935.78 334.36,922.41 334.00,891.00
             333.79,872.55 343.08,850.32 351.25,834.00
             359.91,816.69 371.28,800.99 383.46,786.00
             420.84,739.99 466.95,701.93 515.00,667.58
             570.20,628.12 634.64,590.28 698.00,565.81
             698.00,565.81 720.00,558.00 720.00,558.00
             742.99,550.40 758.06,548.72 782.00,549.00
             805.27,549.28 825.21,561.52 832.92,584.00
             836.88,595.53 836.14,606.99 836.00,619.00
             835.84,632.10 830.05,656.96 826.42,670.00
             818.79,697.47 809.59,724.52 799.00,751.00
             765.39,835.05 724.99,916.33 680.28,995.00
             663.68,1024.21 646.64,1053.04 628.00,1081.00
             628.00,1081.00 621.28,1091.00 621.28,1091.00
             617.75,1096.10 609.69,1105.42 620.00,1108.43
             621.26,1108.80 622.70,1108.90 624.00,1108.96
             624.00,1108.96 640.00,1108.00 640.00,1108.00
             640.00,1108.00 652.00,1108.00 652.00,1108.00
             652.00,1108.00 680.00,1106.00 680.00,1106.00
             680.00,1106.00 696.00,1106.00 696.00,1106.00
             696.00,1106.00 712.00,1105.00 712.00,1105.00
             712.00,1105.00 734.00,1105.00 734.00,1105.00
             734.00,1105.00 750.00,1104.00 750.00,1104.00
             750.00,1104.00 791.00,1104.00 791.00,1104.00
             791.00,1104.00 808.00,1103.00 808.00,1103.00
             808.00,1103.00 936.00,1103.00 936.00,1103.00
             936.00,1103.00 951.00,1104.00 951.00,1104.00
             951.00,1104.00 993.00,1104.00 993.00,1104.00
             993.00,1104.00 1010.00,1105.00 1010.00,1105.00
             1010.00,1105.00 1061.00,1106.00 1061.00,1106.00
             1061.00,1106.00 1073.00,1106.91 1073.00,1106.91
             1073.00,1106.91 1099.00,1108.00 1099.00,1108.00
             1099.00,1108.00 1116.00,1109.04 1116.00,1109.04
             1116.00,1109.04 1127.00,1109.04 1127.00,1109.04
             1127.00,1109.04 1138.00,1110.00 1138.00,1110.00
             1138.00,1110.00 1161.00,1111.09 1161.00,1111.09
             1161.00,1111.09 1189.00,1113.00 1189.00,1113.00
             1189.00,1113.00 1220.00,1115.00 1220.00,1115.00
             1220.00,1115.00 1241.00,1116.09 1241.00,1116.09
             1241.00,1116.09 1269.00,1118.09 1269.00,1118.09
             1269.00,1118.09 1279.00,1119.00 1279.00,1119.00
             1253.14,1088.43 1252.56,1059.65 1253.00,1022.00
             1253.17,1007.98 1259.04,988.18 1263.95,975.00
             1279.06,934.47 1297.14,909.33 1323.80,876.00
             1335.52,861.35 1348.75,848.25 1362.00,835.00
             1408.22,788.78 1456.12,753.53 1512.00,720.00
             1566.86,687.08 1624.67,657.78 1685.00,636.31
             1715.22,625.56 1745.69,615.44 1777.00,608.35
             1795.06,604.26 1817.55,600.03 1836.00,600.00
             1836.00,600.00 1866.00,600.00 1866.00,600.00
             1894.34,600.04 1933.67,611.36 1951.08,635.00
             1956.03,641.73 1958.77,649.14 1961.33,657.00
             1963.53,663.75 1965.91,673.95 1966.00,681.00
             1966.00,681.00 1966.00,699.00 1966.00,699.00
             1965.98,712.64 1959.53,737.41 1952.52,749.00
             1949.46,754.06 1943.49,760.12 1938.00,762.47
             1934.57,763.94 1930.42,764.46 1928.17,760.77
             1925.16,755.84 1929.68,745.86 1931.72,741.00
             1936.78,728.95 1940.98,713.10 1941.00,700.00
             1941.00,700.00 1941.00,694.00 1941.00,694.00
             1940.91,686.45 1938.46,675.30 1936.28,668.00
             1934.50,662.02 1932.33,656.25 1928.90,651.00
             1908.27,619.45 1870.17,615.95 1836.00,616.00
             1824.02,616.02 1810.82,618.99 1799.00,621.08
             1799.00,621.08 1772.00,626.87 1772.00,626.87
             1705.05,643.59 1635.64,672.89 1575.00,705.69
             1530.14,729.96 1482.60,758.28 1443.00,790.46
             1443.00,790.46 1418.00,811.87 1418.00,811.87
             1398.17,828.94 1378.59,846.34 1361.28,866.00
             1322.38,910.21 1286.56,956.75 1278.72,1017.00
             1276.13,1036.88 1275.13,1045.97 1279.88,1066.00
             1283.63,1081.79 1290.98,1098.01 1302.09,1110.00
             1305.00,1113.14 1310.29,1118.65 1314.00,1120.55
             1318.62,1122.91 1337.74,1124.50 1344.00,1125.16
             1348.61,1125.66 1360.47,1126.23 1363.98,1127.72
             1366.00,1128.58 1369.13,1130.91 1367.83,1133.49
             1366.57,1136.00 1361.39,1135.97 1359.00,1136.00
             1359.00,1136.00 1355.00,1136.00 1355.00,1136.00
             1348.47,1135.92 1347.22,1134.17 1341.00,1137.00
             1351.74,1138.65 1365.83,1143.54 1377.00,1142.91
             1391.60,1142.08 1406.03,1138.91 1420.00,1134.72
             1484.61,1115.34 1538.18,1067.28 1581.27,1017.00
             1581.27,1017.00 1616.00,973.00 1616.00,973.00
             1643.24,934.78 1653.17,915.77 1671.42,873.00
             1672.47,870.53 1674.28,866.08 1675.70,864.00
             1680.06,857.62 1690.12,851.64 1697.98,854.74
             1703.17,856.78 1704.66,861.91 1704.33,867.00
             1703.74,876.47 1700.74,885.11 1697.66,894.00
             1697.66,894.00 1674.20,955.00 1674.20,955.00
             1674.20,955.00 1653.40,1008.00 1653.40,1008.00
             1653.40,1008.00 1635.99,1051.00 1635.99,1051.00
             1633.92,1056.02 1628.62,1067.22 1628.01,1072.00
             1627.40,1076.70 1629.86,1078.71 1633.00,1081.72
             1634.56,1083.22 1637.44,1085.26 1636.66,1087.80
             1636.04,1089.85 1632.85,1091.24 1631.00,1091.89
             1625.60,1093.81 1622.34,1092.37 1616.44,1098.30
             1608.82,1105.96 1604.33,1119.22 1599.68,1129.00
             1599.68,1129.00 1594.78,1138.00 1594.78,1138.00
             1594.78,1138.00 1578.69,1170.00 1578.69,1170.00
             1557.70,1208.81 1525.77,1263.08 1495.00,1294.00
             1471.54,1317.57 1440.35,1337.40 1406.00,1337.00
             1379.77,1336.69 1365.30,1319.45 1365.00,1294.00
             1364.89,1284.54 1365.84,1275.14 1368.43,1266.00
             1377.55,1233.81 1407.32,1198.04 1432.00,1176.28
             1461.46,1150.33 1493.46,1128.57 1529.00,1111.78
             1540.34,1106.42 1552.12,1102.29 1564.00,1098.33
             1571.98,1095.67 1581.54,1093.24 1587.96,1087.67
             1595.45,1081.18 1598.32,1070.71 1602.31,1062.00
             1610.03,1045.14 1622.57,1021.01 1625.00,1003.00 Z
           M 1806.00,1044.00
           C 1806.00,1044.00 1784.00,1058.69 1784.00,1058.69
             1768.10,1067.42 1750.03,1071.21 1732.00,1071.00
             1722.28,1070.88 1708.26,1067.87 1701.33,1060.70
             1692.49,1051.57 1695.22,1036.36 1700.26,1026.00
             1710.98,1003.94 1735.90,991.29 1760.00,991.00
             1766.01,990.93 1772.85,990.55 1777.79,994.65
             1787.55,1002.73 1778.56,1017.34 1770.99,1023.32
             1762.21,1030.26 1751.01,1032.98 1740.00,1033.00
             1735.52,1033.01 1724.32,1031.72 1721.13,1033.86
             1715.38,1037.72 1716.40,1046.05 1720.53,1050.70
             1726.77,1057.72 1736.15,1059.10 1745.00,1059.00
             1766.32,1058.75 1781.75,1044.78 1797.00,1031.73
             1801.29,1028.06 1807.04,1023.61 1810.15,1019.00
             1813.24,1014.43 1815.48,1006.38 1817.34,1001.00
             1817.34,1001.00 1826.45,977.00 1826.45,977.00
             1826.45,977.00 1863.72,891.00 1863.72,891.00
             1863.72,891.00 1886.40,838.00 1886.40,838.00
             1889.27,831.11 1894.12,822.96 1902.98,824.38
             1910.11,825.53 1909.58,832.72 1907.76,838.00
             1907.76,838.00 1891.42,877.00 1891.42,877.00
             1872.84,921.30 1853.49,965.51 1838.00,1011.00
             1834.67,1020.76 1829.21,1032.72 1829.02,1043.00
             1828.89,1049.52 1830.26,1055.31 1837.00,1057.99
             1843.18,1060.45 1851.49,1055.01 1857.00,1052.25
             1867.26,1047.10 1882.72,1037.28 1889.37,1028.00
             1892.88,1023.09 1896.37,1013.79 1899.25,1008.00
             1903.34,999.76 1908.42,984.23 1919.98,986.23
             1927.06,987.45 1926.75,995.60 1925.10,1001.00
             1925.10,1001.00 1908.28,1043.00 1908.28,1043.00
             1906.67,1046.82 1901.78,1057.34 1907.15,1059.87
             1909.87,1061.16 1912.87,1059.03 1915.00,1057.51
             1915.00,1057.51 1929.91,1044.91 1929.91,1044.91
             1929.91,1044.91 1937.04,1037.00 1937.04,1037.00
             1937.04,1037.00 1970.28,1001.04 1970.28,1001.04
             1975.88,994.98 1980.67,991.96 1989.00,992.01
             1990.48,992.02 1992.52,992.03 1993.89,992.60
             2000.03,995.14 1997.42,1003.31 1995.98,1008.00
             1995.98,1008.00 1986.22,1039.00 1986.22,1039.00
             1984.96,1042.63 1982.80,1048.36 1986.22,1051.22
             1989.68,1053.78 1994.91,1050.83 1998.00,1049.22
             1998.00,1049.22 2024.00,1032.57 2024.00,1032.57
             2026.85,1030.53 2031.18,1027.26 2033.48,1024.71
             2039.74,1017.80 2048.62,996.31 2053.25,987.00
             2053.25,987.00 2100.77,886.00 2100.77,886.00
             2100.77,886.00 2117.90,848.00 2117.90,848.00
             2120.68,843.07 2125.94,838.05 2132.00,838.20
             2138.04,838.35 2139.55,842.76 2138.67,848.00
             2138.67,848.00 2127.95,878.00 2127.95,878.00
             2116.57,908.43 2100.33,942.84 2085.75,972.00
             2085.75,972.00 2074.31,995.00 2074.31,995.00
             2073.10,997.72 2071.33,1001.92 2073.04,1004.76
             2075.91,1009.54 2083.53,1005.03 2087.00,1003.14
             2098.94,996.63 2115.13,987.56 2129.00,990.00
             2128.36,997.92 2123.48,999.80 2117.00,1003.22
             2117.00,1003.22 2079.00,1022.75 2079.00,1022.75
             2073.50,1025.51 2062.25,1031.39 2063.54,1039.00
             2064.95,1047.36 2079.11,1049.90 2086.00,1050.71
             2091.75,1051.39 2100.27,1049.27 2106.00,1047.87
             2122.80,1043.77 2138.76,1036.26 2154.00,1028.22
             2160.02,1025.04 2163.78,1021.91 2171.00,1022.03
             2174.21,1022.09 2177.56,1022.90 2176.34,1027.02
             2174.51,1033.25 2159.83,1041.33 2154.00,1044.24
             2134.03,1054.23 2113.02,1058.81 2091.00,1061.16
             2085.59,1061.74 2082.66,1062.30 2077.00,1061.91
             2072.35,1061.59 2062.54,1059.62 2058.00,1058.28
             2054.88,1057.36 2049.14,1055.02 2046.04,1055.91
             2042.29,1056.99 2039.10,1062.74 2037.31,1066.00
             2033.96,1072.09 2026.30,1088.55 2021.79,1092.61
             2015.96,1097.86 2006.23,1096.74 2007.56,1088.00
             2007.56,1088.00 2022.00,1053.00 2022.00,1053.00
             2022.00,1053.00 2012.00,1058.80 2012.00,1058.80
             1997.85,1067.24 1968.60,1079.69 1960.39,1057.00
             1959.00,1053.18 1958.33,1049.04 1958.00,1045.00
             1944.41,1056.16 1927.68,1073.99 1910.00,1077.57
             1904.27,1078.92 1895.40,1080.04 1890.00,1077.57
             1880.99,1073.07 1880.61,1060.43 1883.00,1052.00
             1883.00,1052.00 1870.00,1060.19 1870.00,1060.19
             1853.55,1070.38 1815.17,1086.26 1807.76,1058.00
             1806.80,1054.34 1806.08,1047.84 1806.00,1044.00 Z
           M 995.00,1042.00
           C 1006.94,1037.43 1023.50,1015.44 1032.25,1005.00
             1037.50,998.73 1043.36,990.76 1052.00,989.33
             1059.18,988.15 1063.04,991.90 1062.95,999.00
             1062.95,999.00 1056.88,1029.00 1056.88,1029.00
             1056.21,1031.91 1053.23,1041.55 1058.15,1042.24
             1060.30,1042.54 1062.56,1040.28 1064.00,1038.95
             1068.29,1034.98 1071.77,1030.54 1075.40,1026.00
             1075.40,1026.00 1119.40,970.00 1119.40,970.00
             1122.91,965.61 1128.45,957.91 1134.00,956.43
             1136.82,955.68 1141.03,955.85 1142.09,959.15
             1143.16,962.47 1140.43,967.24 1138.79,970.00
             1138.79,970.00 1124.00,993.00 1124.00,993.00
             1109.18,1015.13 1087.47,1043.00 1068.00,1060.91
             1060.22,1068.06 1040.28,1078.86 1033.31,1064.98
             1031.16,1060.70 1032.00,1043.70 1032.00,1038.00
             1019.64,1045.21 1009.44,1059.83 999.00,1064.47
             991.11,1067.98 979.35,1068.83 974.69,1059.96
             972.75,1056.29 972.96,1052.03 973.00,1048.00
             973.00,1048.00 974.00,1036.00 974.00,1036.00
             974.00,1036.00 963.00,1044.58 963.00,1044.58
             963.00,1044.58 954.00,1050.96 954.00,1050.96
             939.47,1060.45 911.80,1074.07 901.88,1050.96
             900.15,1046.98 899.57,1042.32 899.00,1038.00
             899.00,1038.00 871.00,1060.99 871.00,1060.99
             861.40,1068.50 852.43,1073.29 840.00,1072.99
             829.38,1072.73 823.15,1067.96 823.00,1057.00
             823.00,1057.00 823.00,1053.00 823.00,1053.00
             823.08,1036.57 837.97,1004.32 845.49,989.00
             848.71,982.45 856.09,975.93 862.57,983.23
             867.74,989.05 862.86,998.99 860.28,1005.00
             860.28,1005.00 843.52,1048.00 843.52,1048.00
             842.88,1050.96 843.00,1053.99 843.00,1057.00
             850.88,1054.70 859.71,1047.51 866.00,1042.25
             883.07,1027.97 895.98,1010.07 911.17,994.04
             915.81,989.14 924.97,981.93 931.89,986.74
             933.76,988.04 934.99,989.81 935.57,992.00
             936.69,996.26 934.36,1002.88 933.00,1007.00
             930.84,1013.55 923.66,1033.55 923.18,1039.00
             922.11,1050.91 931.72,1046.66 938.00,1043.13
             938.00,1043.13 961.00,1028.33 961.00,1028.33
             966.38,1024.75 972.59,1021.11 976.61,1016.00
             982.67,1008.28 984.45,989.47 991.53,982.39
             997.32,976.60 1006.32,979.59 1005.79,989.00
             1005.31,997.36 995.33,1026.73 995.00,1042.00 Z
           M 793.00,988.46
           C 808.67,986.30 828.42,992.55 826.81,1012.00
             826.29,1018.34 823.29,1025.54 820.13,1031.00
             811.98,1045.07 795.29,1058.60 779.00,1061.77
             775.34,1062.20 767.97,1062.04 764.00,1061.77
             758.84,1061.94 755.93,1061.24 751.00,1059.85
             747.37,1058.82 744.18,1057.54 741.01,1055.45
             721.11,1042.29 737.82,1013.52 750.17,1001.17
             755.36,995.98 763.45,990.72 771.00,990.46
             771.00,990.46 781.00,991.20 781.00,991.20
             781.00,991.20 793.00,988.46 793.00,988.46 Z
           M 791.00,1000.52
           C 774.78,1003.36 762.77,1013.92 756.34,1029.00
             752.71,1037.49 751.32,1052.53 765.00,1050.70
             779.73,1048.73 794.96,1034.47 801.96,1022.00
             805.19,1016.25 809.45,1004.19 800.96,1000.52
             798.23,999.63 793.90,1000.01 791.00,1000.52 Z
           M 1749.00,1003.28
           C 1743.42,1004.66 1733.38,1009.00 1731.66,1015.00
             1729.53,1022.38 1742.50,1023.09 1747.00,1022.16
             1752.05,1021.13 1756.27,1017.61 1758.55,1013.00
             1760.89,1008.26 1759.47,1004.17 1754.00,1003.28
             1752.26,1002.93 1750.72,1003.15 1749.00,1003.28 Z
           M 1570.00,1109.37
           C 1555.81,1112.29 1529.17,1127.19 1516.00,1134.72
             1484.95,1152.48 1450.41,1181.24 1426.85,1208.00
             1405.96,1231.73 1389.47,1257.76 1387.18,1290.00
             1386.97,1292.93 1388.01,1300.00 1388.67,1303.00
             1389.35,1306.12 1390.34,1309.23 1391.95,1312.00
             1405.31,1334.89 1437.06,1316.49 1452.00,1305.37
             1467.19,1294.06 1479.63,1279.73 1491.40,1265.00
             1512.15,1239.02 1536.29,1198.92 1551.25,1169.00
             1551.25,1169.00 1573.74,1124.00 1573.74,1124.00
             1576.64,1118.00 1580.33,1109.33 1570.00,1109.37 Z
           M 560.00,1126.00
           C 560.00,1126.00 506.00,1131.83 506.00,1131.83
             461.65,1136.27 417.59,1141.95 374.00,1151.58
             343.73,1158.26 306.06,1167.97 278.00,1180.77
             255.03,1191.25 231.37,1203.22 214.92,1223.00
             207.33,1232.13 201.30,1241.73 201.01,1254.00
             200.61,1271.71 210.50,1282.32 224.00,1292.37
             244.51,1307.63 271.16,1318.69 297.00,1319.00
             327.37,1319.35 350.16,1311.67 377.00,1298.25
             413.57,1279.96 440.23,1258.82 470.00,1231.09
             470.00,1231.09 510.16,1191.00 510.16,1191.00
             510.16,1191.00 542.13,1155.00 542.13,1155.00
             549.63,1146.28 557.31,1137.47 560.00,1126.00 Z
           M 1078.00,1632.00
           C 1076.43,1626.52 1075.49,1615.09 1074.84,1609.00
             1074.84,1609.00 1072.00,1576.00 1072.00,1576.00
             1071.97,1555.15 1071.29,1538.80 1075.45,1518.00
             1086.09,1464.79 1123.11,1407.70 1183.00,1407.00
             1209.29,1406.70 1234.65,1411.00 1255.00,1429.17
             1263.07,1436.37 1270.51,1444.82 1277.58,1453.00
             1280.92,1456.87 1286.31,1464.26 1291.00,1465.96
             1295.73,1467.66 1302.18,1464.12 1307.00,1462.90
             1316.44,1460.50 1326.26,1458.89 1336.00,1459.00
             1342.86,1459.08 1352.30,1460.91 1359.00,1462.63
             1384.55,1469.17 1405.56,1481.74 1420.48,1504.00
             1433.14,1522.88 1439.11,1547.45 1439.00,1570.00
             1438.96,1577.57 1437.11,1588.47 1435.60,1596.00
             1425.48,1646.57 1396.51,1683.24 1359.00,1717.17
             1359.00,1717.17 1345.00,1730.00 1345.00,1730.00
             1345.00,1730.00 1365.00,1728.17 1365.00,1728.17
             1365.00,1728.17 1420.00,1723.96 1420.00,1723.96
             1420.00,1723.96 1432.00,1723.04 1432.00,1723.04
             1432.00,1723.04 1453.00,1725.75 1453.00,1725.75
             1487.80,1731.46 1515.88,1743.76 1541.00,1769.00
             1558.18,1786.26 1571.96,1812.18 1572.00,1837.00
             1572.00,1837.00 1572.00,1846.00 1572.00,1846.00
             1571.96,1868.74 1561.02,1896.19 1545.83,1913.00
             1540.82,1918.54 1530.25,1926.32 1524.00,1931.59
             1520.70,1934.37 1515.26,1938.95 1513.74,1943.00
             1511.90,1947.87 1514.85,1954.18 1516.12,1959.00
             1518.39,1967.64 1519.99,1977.06 1520.00,1986.00
             1520.02,1998.11 1518.09,2011.59 1513.95,2023.00
             1510.13,2033.51 1506.64,2041.01 1499.76,2050.00
             1461.34,2100.25 1392.61,2097.78 1340.00,2073.69
             1323.73,2066.24 1303.30,2051.78 1290.00,2039.83
             1290.00,2039.83 1264.00,2016.00 1264.00,2016.00
             1264.00,2016.00 1285.31,2055.00 1285.31,2055.00
             1300.38,2082.87 1314.97,2111.19 1333.43,2137.00
             1349.52,2159.51 1367.22,2181.75 1386.09,2202.00
             1386.09,2202.00 1413.00,2227.17 1413.00,2227.17
             1413.00,2227.17 1434.00,2246.68 1434.00,2246.68
             1434.00,2246.68 1458.00,2263.72 1458.00,2263.72
             1480.10,2279.19 1501.01,2292.10 1526.00,2302.58
             1572.30,2321.99 1611.07,2327.55 1660.00,2334.00
             1657.67,2350.41 1649.29,2351.16 1635.00,2351.00
             1635.00,2351.00 1606.00,2347.27 1606.00,2347.27
             1573.03,2342.52 1540.93,2332.96 1511.00,2318.24
             1491.55,2308.68 1472.09,2298.99 1454.00,2287.00
             1429.48,2270.75 1407.73,2250.73 1387.00,2230.00
             1363.91,2206.91 1341.35,2181.85 1324.06,2154.00
             1324.06,2154.00 1302.69,2115.00 1302.69,2115.00
             1302.69,2115.00 1267.97,2049.00 1267.97,2049.00
             1267.97,2049.00 1252.00,2012.00 1252.00,2012.00
             1252.00,2012.00 1255.00,2059.00 1255.00,2059.00
             1255.03,2075.71 1254.36,2092.51 1251.39,2109.00
             1243.91,2150.41 1219.32,2197.33 1179.00,2214.57
             1166.03,2220.12 1152.01,2222.82 1138.00,2223.82
             1138.00,2223.82 1128.00,2223.04 1128.00,2223.04
             1104.48,2222.01 1080.93,2214.20 1064.17,2196.91
             1058.60,2191.17 1052.69,2182.82 1048.42,2176.00
             1046.33,2172.65 1042.80,2166.12 1039.25,2164.46
             1035.52,2162.72 1026.97,2166.45 1023.00,2167.57
             1013.43,2170.27 1001.93,2172.11 992.00,2172.00
             982.45,2171.89 963.84,2169.78 955.00,2166.56
             932.23,2158.29 907.84,2138.04 897.49,2116.00
             889.01,2097.95 887.97,2076.62 888.00,2057.00
             888.02,2044.01 891.85,2026.32 896.08,2014.00
             905.84,1985.53 923.62,1957.96 944.09,1936.00
             944.09,1936.00 957.00,1923.91 957.00,1923.91
             957.00,1923.91 980.00,1902.00 980.00,1902.00
             980.00,1902.00 953.00,1904.09 953.00,1904.09
             953.00,1904.09 927.00,1906.00 927.00,1906.00
             927.00,1906.00 894.00,1906.00 894.00,1906.00
             865.09,1905.95 833.47,1894.66 809.00,1879.80
             799.38,1873.95 785.04,1863.15 777.59,1854.91
             765.14,1841.14 755.22,1816.68 755.00,1798.00
             755.00,1798.00 755.00,1782.00 755.00,1782.00
             755.03,1760.11 763.81,1737.50 778.16,1721.00
             784.97,1713.16 790.64,1708.04 799.00,1701.88
             803.38,1698.66 810.05,1695.13 812.15,1690.00
             814.11,1685.18 811.52,1677.01 810.42,1672.00
             808.97,1665.37 805.75,1645.12 806.18,1639.00
             806.75,1631.04 807.54,1622.76 809.47,1615.00
             818.26,1579.68 843.98,1553.27 879.00,1543.43
             892.13,1539.74 906.47,1539.85 920.00,1540.00
             930.51,1540.13 945.81,1543.37 956.00,1546.29
             992.29,1556.71 1015.01,1570.85 1043.00,1596.17
             1043.00,1596.17 1078.00,1632.00 1078.00,1632.00 Z
           M 1195.00,1434.94
           C 1179.24,1435.05 1169.54,1436.10 1155.00,1443.37
             1130.39,1455.67 1110.86,1486.41 1102.33,1512.00
             1082.82,1570.52 1093.94,1642.92 1117.01,1699.00
             1126.75,1722.67 1139.49,1744.75 1153.67,1766.00
             1160.94,1776.90 1166.33,1786.53 1181.00,1785.96
             1190.16,1785.60 1207.12,1779.75 1216.00,1776.42
             1216.00,1776.42 1256.00,1760.26 1256.00,1760.26
             1294.18,1741.83 1320.89,1723.11 1351.00,1693.00
             1383.12,1660.88 1402.65,1634.09 1408.15,1588.00
             1408.15,1588.00 1410.00,1570.00 1410.00,1570.00
             1410.59,1518.93 1367.56,1478.41 1317.00,1479.00
             1310.38,1479.08 1300.59,1480.98 1294.00,1482.42
             1289.68,1483.37 1285.24,1485.16 1280.97,1483.20
             1277.00,1481.38 1273.98,1477.30 1271.25,1474.00
             1266.62,1468.41 1260.14,1459.82 1255.00,1455.17
             1242.20,1443.61 1224.06,1436.82 1207.00,1434.94
             1207.00,1434.94 1195.00,1434.94 1195.00,1434.94 Z
           M 907.00,1569.19
           C 900.39,1570.23 894.50,1569.60 888.00,1571.43
             861.03,1579.00 836.47,1600.77 828.44,1628.00
             825.05,1639.50 825.98,1653.01 826.00,1665.00
             826.01,1672.96 830.69,1691.57 827.98,1697.00
             824.45,1704.06 809.19,1713.49 803.17,1720.01
             788.45,1735.97 779.76,1759.32 780.00,1781.00
             780.08,1787.91 782.08,1800.24 783.88,1807.00
             793.87,1844.42 832.32,1869.75 868.00,1879.12
             868.00,1879.12 894.00,1883.13 894.00,1883.13
             894.00,1883.13 917.00,1885.96 917.00,1885.96
             917.00,1885.96 958.00,1881.84 958.00,1881.84
             958.00,1881.84 994.00,1876.58 994.00,1876.58
             1022.83,1870.21 1065.36,1851.87 1091.00,1837.15
             1100.67,1831.60 1110.12,1825.62 1119.00,1818.87
             1123.24,1815.64 1128.96,1811.03 1130.99,1806.00
             1133.87,1798.90 1129.82,1788.01 1127.72,1781.00
             1121.68,1760.87 1116.10,1744.21 1107.31,1725.00
             1100.66,1710.48 1092.80,1696.35 1084.00,1683.00
             1055.53,1639.82 1015.08,1595.17 965.00,1577.69
             947.87,1571.72 929.95,1570.11 912.00,1569.19
             912.00,1569.19 907.00,1569.19 907.00,1569.19 Z
           M 1366.00,1748.10
           C 1366.00,1748.10 1322.00,1756.15 1322.00,1756.15
             1292.88,1764.12 1261.48,1778.81 1235.00,1793.23
             1235.00,1793.23 1207.00,1811.34 1207.00,1811.34
             1201.61,1815.01 1195.98,1818.66 1193.56,1825.00
             1190.85,1832.12 1193.23,1842.77 1195.15,1850.00
             1199.34,1865.69 1208.30,1889.24 1215.22,1904.00
             1237.80,1952.13 1269.35,1995.72 1311.00,2029.20
             1333.24,2047.07 1365.89,2063.66 1395.00,2064.00
             1411.86,2064.19 1432.38,2062.84 1448.00,2056.13
             1477.92,2043.28 1498.62,2009.26 1499.00,1977.00
             1499.13,1965.35 1499.32,1960.53 1496.37,1949.00
             1495.32,1944.90 1492.14,1937.83 1494.04,1934.04
             1495.78,1930.54 1500.80,1928.03 1504.00,1925.92
             1508.50,1922.96 1512.93,1919.30 1516.83,1915.58
             1530.71,1902.32 1539.38,1883.95 1541.52,1865.00
             1542.99,1854.64 1543.46,1844.29 1541.52,1834.00
             1539.62,1825.71 1537.15,1817.52 1533.22,1810.00
             1516.02,1777.11 1479.07,1758.92 1444.00,1751.80
             1434.90,1749.95 1425.29,1748.01 1416.00,1748.10
             1416.00,1748.10 1394.00,1748.10 1394.00,1748.10
             1394.00,1748.10 1366.00,1748.10 1366.00,1748.10 Z
           M 1140.00,1847.29
           C 1080.69,1857.10 1014.99,1897.01 973.00,1939.00
             955.85,1956.15 938.25,1975.89 927.78,1998.00
             907.12,2041.65 906.29,2101.58 947.00,2134.19
             953.35,2139.28 960.44,2143.50 968.00,2146.55
             976.34,2149.92 992.92,2152.61 1002.00,2152.96
             1007.22,2153.16 1021.81,2151.21 1027.00,2149.84
             1031.28,2148.72 1036.75,2145.95 1041.00,2148.03
             1047.07,2150.99 1058.97,2168.69 1065.17,2174.71
             1080.25,2189.35 1102.06,2197.75 1123.00,2198.00
             1138.44,2198.18 1154.09,2195.70 1168.00,2188.73
             1195.09,2175.15 1215.38,2143.60 1223.57,2115.00
             1227.28,2102.07 1230.98,2083.37 1231.00,2070.00
             1231.00,2070.00 1231.00,2044.00 1231.00,2044.00
             1230.98,2034.21 1228.22,2015.98 1226.42,2006.00
             1222.31,1983.19 1215.26,1956.55 1206.80,1935.00
             1196.69,1909.26 1186.26,1891.88 1171.00,1869.00
             1161.88,1855.32 1158.36,1845.55 1140.00,1847.29 Z" />
             <path fill="#d1b38f" stroke="none" stroke-width="1"
                   d="M 1185.00,1434.42
                      C 1207.59,1431.67 1237.83,1439.15 1254.83,1454.61
                        1259.27,1458.65 1266.27,1467.14 1270.20,1472.00
                        1272.99,1475.46 1277.03,1480.86 1281.00,1482.82
                        1285.34,1484.98 1290.58,1482.93 1295.00,1481.88
                        1300.42,1480.60 1314.70,1478.34 1320.00,1478.34
                        1346.91,1478.34 1378.19,1495.58 1393.84,1517.00
                        1403.26,1529.89 1409.97,1547.94 1410.00,1564.00
                        1410.04,1590.93 1404.92,1619.40 1391.42,1643.00
                        1369.12,1681.99 1326.34,1720.63 1288.00,1743.80
                        1273.62,1752.48 1258.44,1759.84 1243.00,1766.42
                        1229.64,1772.12 1197.55,1784.40 1184.00,1785.98
                        1167.67,1787.90 1161.31,1778.41 1153.00,1766.00
                        1138.73,1744.68 1126.78,1722.57 1116.72,1699.00
                        1093.53,1644.69 1083.08,1571.00 1101.34,1514.00
                        1108.48,1491.74 1126.39,1461.06 1146.00,1448.10
                        1157.88,1440.25 1171.11,1436.44 1185.00,1434.42 Z
                      M 899.00,1569.21
                      C 899.00,1569.21 905.00,1569.21 905.00,1569.21
                        924.45,1568.78 946.56,1570.96 965.00,1577.34
                        1027.02,1598.80 1076.82,1663.15 1105.25,1720.00
                        1114.97,1739.44 1122.14,1760.13 1128.14,1781.00
                        1130.02,1787.55 1134.20,1798.43 1131.86,1805.00
                        1129.67,1811.19 1124.01,1815.44 1119.00,1819.34
                        1108.90,1827.17 1093.50,1836.50 1082.00,1842.25
                        1052.84,1856.83 1025.01,1869.75 993.00,1877.11
                        993.00,1877.11 947.00,1883.17 947.00,1883.17
                        947.00,1883.17 917.00,1886.00 917.00,1886.00
                        917.00,1886.00 893.00,1883.28 893.00,1883.28
                        893.00,1883.28 870.00,1880.10 870.00,1880.10
                        832.43,1871.14 792.72,1844.27 783.13,1805.00
                        781.66,1798.98 780.08,1790.14 780.00,1784.00
                        780.00,1784.00 780.00,1777.00 780.00,1777.00
                        780.03,1758.98 788.29,1736.53 800.18,1723.00
                        805.90,1716.50 811.38,1712.33 818.00,1707.00
                        821.51,1704.18 826.63,1700.29 828.26,1696.00
                        830.01,1691.39 826.01,1674.35 826.00,1667.00
                        825.98,1654.13 824.80,1639.30 828.44,1627.00
                        835.22,1604.08 856.08,1583.33 878.00,1574.45
                        886.77,1570.90 890.06,1570.72 899.00,1569.21 Z
                      M 1369.00,1747.22
                      C 1369.00,1747.22 1411.00,1747.22 1411.00,1747.22
                        1419.14,1747.10 1432.83,1749.37 1441.00,1751.00
                        1482.94,1759.39 1526.82,1780.54 1539.42,1825.00
                        1541.23,1831.39 1542.92,1839.37 1543.00,1846.00
                        1543.30,1872.34 1537.87,1893.05 1519.83,1913.00
                        1515.09,1918.24 1508.96,1923.14 1503.00,1926.95
                        1499.88,1928.94 1495.01,1931.30 1493.83,1935.04
                        1492.88,1938.05 1496.72,1949.14 1497.58,1953.00
                        1499.90,1963.52 1500.03,1974.35 1498.71,1985.00
                        1494.45,2019.56 1471.98,2049.87 1438.00,2059.96
                        1423.85,2064.17 1406.69,2064.17 1392.00,2064.00
                        1368.01,2063.72 1341.54,2050.72 1322.00,2037.67
                        1276.55,2007.31 1234.05,1949.18 1212.58,1899.00
                        1205.82,1883.19 1192.68,1850.50 1192.04,1834.00
                        1191.85,1829.14 1192.38,1825.18 1195.13,1821.04
                        1198.07,1816.60 1203.60,1813.27 1208.00,1810.33
                        1208.00,1810.33 1228.00,1797.00 1228.00,1797.00
                        1251.92,1781.26 1301.88,1760.36 1330.00,1753.89
                        1330.00,1753.89 1369.00,1747.22 1369.00,1747.22 Z
                      M 1142.00,1846.44
                      C 1156.54,1844.90 1163.35,1856.20 1170.31,1867.00
                        1185.07,1889.90 1199.67,1913.10 1208.66,1939.00
                        1229.38,1998.70 1243.27,2068.34 1218.80,2129.00
                        1203.45,2167.04 1173.18,2197.93 1130.00,2198.00
                        1130.00,2198.00 1120.00,2198.00 1120.00,2198.00
                        1100.18,2197.76 1077.78,2188.20 1064.04,2174.00
                        1064.04,2174.00 1049.08,2156.00 1049.08,2156.00
                        1046.94,2153.44 1044.03,2149.61 1041.00,2148.21
                        1037.04,2146.39 1031.05,2149.09 1027.00,2150.11
                        1018.08,2152.33 1010.15,2153.10 1001.00,2153.00
                        992.78,2152.90 977.72,2150.37 970.00,2147.56
                        962.15,2144.71 955.73,2141.20 949.00,2136.25
                        905.14,2104.00 907.06,2040.74 928.32,1996.00
                        939.16,1973.18 962.38,1947.67 981.00,1930.83
                        1026.29,1889.87 1081.30,1857.51 1142.00,1846.44 Z" />

</svg>
