<svg width="3.80556in" height="4.11111in" viewBox="0 0 274 296">
        <path fill="black"
        d="M 28.00,52.14
           C 28.00,52.14 100.00,52.14 100.00,52.14
             100.00,52.14 238.00,52.14 238.00,52.14
             249.73,52.06 261.29,54.68 265.87,67.00
             267.55,71.52 267.99,78.18 268.00,83.00
             268.00,83.00 268.00,212.00 268.00,212.00
             267.99,216.82 267.55,223.48 265.87,228.00
             261.11,240.81 249.04,242.98 237.00,243.00
             237.00,243.00 36.00,243.00 36.00,243.00
             31.18,242.99 24.52,242.55 20.00,240.87
             7.19,236.11 5.02,224.04 5.00,212.00
             5.00,212.00 5.00,81.00 5.00,81.00
             5.20,64.05 10.78,55.26 28.00,52.14 Z
           M 248.00,64.00
           C 248.00,64.00 25.00,64.00 25.00,64.00
             28.22,70.82 44.79,85.79 51.00,92.00
             51.00,92.00 108.00,149.00 108.00,149.00
             108.00,149.00 126.00,166.70 126.00,166.70
             129.43,169.59 133.27,172.30 138.00,171.62
             142.81,170.94 146.68,167.22 150.00,163.99
             150.00,163.99 167.00,147.00 167.00,147.00
             167.00,147.00 222.00,92.00 222.00,92.00
             228.21,85.79 244.78,70.82 248.00,64.00 Z
           M 17.00,74.00
           C 17.00,74.00 16.00,89.00 16.00,89.00
             16.00,89.00 16.00,119.00 16.00,119.00
             16.00,119.00 16.00,221.00 16.00,221.00
             22.35,218.00 30.74,208.26 36.00,203.00
             36.00,203.00 74.00,165.00 74.00,165.00
             74.00,165.00 86.94,152.72 86.94,152.72
             88.81,150.90 90.86,148.88 89.83,146.04
             89.03,143.81 84.84,140.63 83.00,138.91
             83.00,138.91 70.00,126.00 70.00,126.00
             70.00,126.00 37.00,93.00 37.00,93.00
             31.45,87.45 23.01,78.30 17.00,74.00 Z
           M 257.00,74.00
           C 250.65,77.00 242.26,86.74 237.00,92.00
             237.00,92.00 199.00,130.00 199.00,130.00
             199.00,130.00 186.06,142.58 186.06,142.58
             184.24,144.32 182.12,146.11 183.17,148.92
             183.89,150.84 187.42,153.61 189.00,155.09
             189.00,155.09 202.00,168.00 202.00,168.00
             202.00,168.00 238.00,204.00 238.00,204.00
             243.17,209.17 250.67,218.01 257.00,221.00
             257.00,221.00 257.00,74.00 257.00,74.00 Z
           M 101.00,156.00
           C 93.98,158.06 84.46,169.54 79.00,175.00
             79.00,175.00 43.00,211.00 43.00,211.00
             37.74,216.26 28.00,224.65 25.00,231.00
             25.00,231.00 248.00,231.00 248.00,231.00
             245.00,224.65 235.26,216.26 230.00,211.00
             230.00,211.00 192.00,173.00 192.00,173.00
             192.00,173.00 179.00,160.06 179.00,160.06
             177.00,158.24 174.92,156.16 172.00,157.17
             169.76,157.94 165.78,162.22 164.00,164.00
             160.65,167.35 151.23,177.16 148.00,179.30
             141.29,183.75 131.71,183.75 125.00,179.30
             121.94,177.27 114.98,169.98 112.00,167.00
             112.00,167.00 101.00,156.00 101.00,156.00 Z" />
</svg>
