<svg width="11.3333in" height="11.3333in" viewBox="0 0 816 816">
  <path fill="black" stroke="none" stroke-width="1"
        d="M 388.00,0.21
           C 388.00,0.21 420.00,0.21 420.00,0.21
             420.00,0.21 431.00,0.91 431.00,0.91
             457.21,2.70 480.41,5.73 506.00,12.13
             648.69,47.80 759.15,155.72 799.42,297.00
             806.69,322.50 811.24,348.57 813.09,375.00
             813.09,375.00 814.00,385.00 814.00,385.00
             814.00,385.00 814.00,417.00 814.00,417.00
             814.00,417.00 814.00,428.00 814.00,428.00
             814.00,428.00 813.09,440.00 813.09,440.00
             810.45,477.71 801.97,514.52 788.95,550.00
             742.58,676.35 633.90,770.63 504.00,803.11
             484.85,807.89 447.38,813.97 428.00,814.00
             428.00,814.00 385.00,814.00 385.00,814.00
             385.00,814.00 375.00,813.09 375.00,813.09
             341.61,810.79 308.76,803.92 277.00,793.33
             236.21,779.74 197.39,759.32 163.00,733.53
             111.34,694.78 68.42,643.18 40.26,585.00
             -9.52,482.15 -13.63,359.86 29.45,254.00
             72.16,149.06 159.94,62.82 267.00,24.69
             293.72,15.18 319.93,8.41 348.00,4.27
             348.00,4.27 375.00,1.17 375.00,1.17
             375.00,1.17 388.00,0.21 388.00,0.21 Z
           M 457.00,214.00
           C 442.88,189.44 413.52,173.78 386.00,170.84
             382.49,170.46 380.77,169.88 377.00,170.09
             334.12,172.52 290.56,199.94 283.44,245.00
             280.81,261.63 283.47,278.96 288.28,295.00
             302.30,341.76 331.31,372.25 368.00,402.92
             368.00,402.92 394.00,424.42 394.00,424.42
             397.93,427.64 404.60,433.90 409.00,435.66
             409.00,435.66 430.00,440.08 430.00,440.08
             430.00,440.08 468.00,445.07 468.00,445.07
             468.00,445.07 490.00,447.40 490.00,447.40
             494.44,446.82 500.76,439.22 504.00,436.00
             504.00,436.00 535.00,407.09 535.00,407.09
             562.34,381.66 590.63,356.30 611.49,325.00
             621.82,309.50 631.91,288.97 632.00,270.00
             632.00,270.00 632.00,258.00 632.00,258.00
             631.89,248.69 629.21,238.62 625.80,230.00
             611.11,192.92 576.79,172.29 538.00,170.09
             534.23,169.88 532.51,170.46 529.00,170.84
             507.56,173.13 489.06,181.69 473.00,196.17
             466.34,202.18 462.88,207.60 457.00,214.00 Z
           M 387.00,535.00
           C 395.76,533.24 397.53,532.01 407.00,532.00
             407.00,532.00 454.00,535.00 454.00,535.00
             454.00,535.00 458.00,535.00 458.00,535.00
             458.00,535.00 501.00,539.00 501.00,539.00
             501.00,539.00 512.00,539.00 512.00,539.00
             519.76,538.99 532.60,537.85 539.00,533.35
             554.72,522.32 555.55,495.63 542.90,482.02
             537.02,475.69 532.76,474.91 525.00,472.33
             512.52,468.19 497.11,465.73 484.00,464.15
             460.53,461.34 420.54,457.26 399.00,451.09
             374.13,443.97 350.74,428.48 326.00,421.43
             290.34,411.25 245.99,417.21 211.00,427.98
             211.00,427.98 189.00,434.34 189.00,434.34
             189.00,434.34 153.00,446.67 153.00,446.67
             149.88,447.71 136.47,451.74 134.99,453.70
             133.74,455.36 134.00,458.97 134.00,461.00
             134.00,461.00 134.00,566.00 134.00,566.00
             134.00,568.16 133.78,571.76 135.02,573.57
             137.08,576.57 148.27,577.46 152.00,577.83
             168.18,579.46 192.10,580.17 207.00,584.43
             229.02,590.71 245.26,600.97 265.00,611.69
             265.00,611.69 287.00,623.75 287.00,623.75
             287.00,623.75 314.00,636.26 314.00,636.26
             329.71,643.86 347.16,652.82 364.00,657.57
             380.54,662.24 397.99,661.20 415.00,661.00
             415.00,661.00 425.00,660.09 425.00,660.09
             445.67,658.58 465.62,654.79 486.00,651.25
             501.71,648.52 542.28,642.19 555.00,637.56
             572.19,631.31 590.31,618.84 604.00,606.85
             614.17,597.94 629.78,583.09 638.42,573.00
             644.09,566.38 648.76,561.33 651.94,553.00
             654.28,546.83 655.14,542.59 654.99,536.00
             654.53,516.06 636.38,505.32 618.00,506.04
             596.93,506.87 586.74,518.58 571.00,530.12
             562.73,536.18 549.63,543.29 540.00,546.94
             523.54,553.18 510.18,553.91 493.00,555.09
             493.00,555.09 483.00,556.00 483.00,556.00
             463.96,556.22 444.64,556.63 426.00,552.10
             415.98,549.67 406.21,546.38 397.00,541.75
             397.00,541.75 387.00,537.00 387.00,537.00
             387.00,537.00 387.00,535.00 387.00,535.00 Z" />
</svg>
