<svg width="50.7937mm" height="50.4409mm" viewBox="0 0 144 143">
  <path fill="black" stroke="none" stroke-width="1"
        d="M 60.00,2.44
           C 79.73,-0.09 100.29,3.70 116.00,16.47
             155.05,48.20 150.12,110.93 105.00,134.68
             90.92,142.09 81.30,142.18 66.00,142.00
             38.39,141.67 12.95,119.68 4.75,94.00
             1.54,83.97 1.98,78.17 2.00,68.00
             2.05,34.62 28.08,8.33 60.00,2.44 Z
           M 69.00,33.33
           C 65.45,34.18 62.94,35.01 60.04,37.39
             45.66,49.21 54.20,74.18 76.00,70.79
             87.56,68.99 94.16,55.49 89.64,45.00
             85.89,36.33 78.13,32.40 69.00,33.33 Z
           M 61.00,81.30
           C 48.04,83.72 37.02,88.63 30.81,101.00
             29.35,103.91 26.77,109.79 27.69,113.00
             28.76,116.70 33.90,120.54 37.00,122.64
             45.70,128.51 56.41,132.87 67.00,133.00
             82.44,133.18 92.64,132.24 106.00,123.25
             109.23,121.08 115.22,116.85 116.23,113.00
             117.23,109.19 113.55,101.26 111.53,98.00
             101.14,81.19 78.73,79.54 61.00,81.30 Z" />
</svg>
