<svg width="209.524mm" height="201.058mm" viewBox="0 0 792 760">
        <path fill="black"
        d="M 170.00,6.43
           C 191.31,3.80 211.14,14.96 228.00,26.66
             248.82,41.09 266.46,63.32 280.86,84.00
             294.52,103.63 307.39,123.65 318.24,145.00
             326.46,161.17 341.23,186.79 339.91,205.00
             338.09,229.99 317.75,244.03 298.00,255.28
             281.29,264.80 275.03,268.24 257.00,275.45
             243.06,281.02 225.64,286.52 221.85,303.00
             221.06,307.34 220.67,310.60 221.85,315.00
             223.18,321.57 231.23,335.91 234.94,342.00
             244.11,357.06 253.34,370.34 264.54,384.00
             264.54,384.00 279.29,402.00 279.29,402.00
             279.29,402.00 296.58,420.00 296.58,420.00
             317.93,442.01 335.13,458.82 359.00,478.39
             359.00,478.39 400.00,508.49 400.00,508.49
             413.22,518.08 433.59,530.47 448.00,538.47
             459.15,544.67 465.74,549.76 479.00,545.05
             497.50,538.49 502.23,524.49 510.60,509.00
             520.22,491.21 535.25,459.97 549.09,446.09
             555.39,439.77 565.31,433.83 574.00,431.61
             577.34,430.75 579.72,431.14 583.00,430.91
             586.15,430.70 587.69,430.08 591.00,430.32
             591.00,430.32 604.00,431.93 604.00,431.93
             616.94,435.41 641.60,450.45 653.00,458.28
             653.00,458.28 672.00,470.57 672.00,470.57
             672.00,470.57 694.00,487.11 694.00,487.11
             694.00,487.11 718.00,504.66 718.00,504.66
             718.00,504.66 744.00,526.58 744.00,526.58
             760.31,540.71 779.83,558.27 785.10,580.00
             786.34,585.10 786.06,591.67 786.00,597.00
             785.71,621.18 769.59,645.63 755.35,664.00
             740.47,683.20 730.60,691.84 712.04,706.99
             676.98,735.59 642.34,754.54 596.00,754.00
             576.47,753.77 550.54,746.09 532.00,739.89
             492.27,726.60 452.61,707.08 416.00,686.73
             358.48,654.76 304.02,617.18 254.00,574.43
             254.00,574.43 229.30,552.80 229.30,552.80
             158.84,486.10 99.00,408.04 52.30,323.00
             38.61,298.05 20.91,261.16 13.26,234.00
             10.63,224.67 6.12,210.47 6.00,201.00
             6.00,201.00 6.00,179.00 6.00,179.00
             6.02,167.98 9.82,157.35 13.26,147.00
             23.55,116.01 47.34,86.10 71.00,64.09
             71.00,64.09 85.83,51.66 85.83,51.66
             109.83,30.79 138.04,11.68 170.00,6.43 Z
           M 173.00,41.29
           C 149.62,44.87 128.82,61.43 111.00,75.80
             96.73,87.30 82.85,99.57 71.42,114.01
             55.79,133.79 40.04,161.10 40.00,187.00
             40.00,187.00 40.00,194.00 40.00,194.00
             40.15,206.46 45.36,221.22 49.26,233.00
             58.37,260.52 75.42,295.02 90.25,320.00
             90.25,320.00 118.95,366.96 118.95,366.96
             152.61,418.37 198.65,475.54 243.00,517.96
             298.49,571.04 357.94,612.83 424.00,651.45
             458.71,671.74 496.23,690.24 534.00,704.05
             552.88,710.96 576.88,718.76 597.00,719.00
             603.66,719.07 613.52,718.69 620.00,717.54
             650.98,712.04 681.54,689.01 704.00,668.09
             704.00,668.09 712.96,659.99 712.96,659.99
             712.96,659.99 724.88,646.58 724.88,646.58
             737.13,632.96 756.19,605.49 750.62,586.00
             748.06,577.05 732.17,561.72 725.00,555.58
             704.69,538.18 683.92,521.46 662.09,506.00
             662.09,506.00 614.00,474.68 614.00,474.68
             607.32,470.55 594.89,463.52 587.00,464.19
             576.40,465.08 570.88,472.73 565.59,481.00
             565.59,481.00 547.75,512.00 547.75,512.00
             534.49,538.53 525.46,560.76 497.00,574.59
             489.47,578.25 481.42,580.96 473.00,581.00
             473.00,581.00 465.00,581.00 465.00,581.00
             453.55,580.86 442.79,574.97 433.01,569.61
             433.01,569.61 384.00,539.51 384.00,539.51
             324.43,499.80 272.54,450.33 228.29,394.17
             217.37,380.30 208.11,365.42 199.57,350.00
             193.23,338.57 186.32,324.29 186.01,311.00
             185.86,304.17 186.90,299.53 188.71,293.00
             191.81,281.80 196.43,272.25 205.01,264.09
             218.52,251.25 252.44,241.56 271.00,230.85
             280.44,225.39 302.06,214.99 304.45,204.00
             305.54,199.02 303.02,193.55 301.20,189.00
             301.20,189.00 285.41,157.00 285.41,157.00
             268.51,126.40 241.90,82.80 215.00,60.80
             203.47,51.37 188.74,39.86 173.00,41.29 Z" />
</svg>
