<svg width="10.7222in" height="10.75in" viewBox="0 0 772 774">
        <path fill="black"
        d="M 365.00,6.21
           C 365.00,6.21 400.00,6.21 400.00,6.21
             400.00,6.21 411.00,6.91 411.00,6.91
             432.35,8.37 453.13,11.16 474.00,16.12
             614.11,49.38 722.62,157.90 755.88,298.00
             760.84,318.86 763.62,339.65 765.09,361.00
             765.09,361.00 766.00,371.00 766.00,371.00
             766.00,371.00 766.00,399.00 766.00,399.00
             766.00,399.00 765.09,411.00 765.09,411.00
             762.78,444.73 756.77,477.96 745.66,510.00
             707.35,620.37 619.95,708.56 509.00,746.00
             477.10,756.76 444.50,762.80 411.00,765.09
             411.00,765.09 399.00,766.00 399.00,766.00
             399.00,766.00 371.00,766.00 371.00,766.00
             371.00,766.00 361.00,765.09 361.00,765.09
             330.29,762.99 301.51,757.57 272.00,748.72
             239.48,738.96 208.53,724.03 180.00,705.69
             146.59,684.21 117.84,658.54 92.43,628.00
             -1.38,515.22 -19.56,357.55 41.31,225.00
             83.90,132.24 165.78,59.62 262.00,26.34
             285.54,18.20 310.32,12.53 335.00,9.28
             335.00,9.28 354.00,7.09 354.00,7.09
             354.00,7.09 365.00,6.21 365.00,6.21 Z
           M 608.00,131.33
           C 600.60,132.43 594.10,134.20 588.09,138.93
             581.91,143.79 572.72,159.76 568.00,167.00
             568.00,167.00 525.33,233.00 525.33,233.00
             522.11,237.83 508.01,258.94 504.70,261.40
             502.63,262.94 500.45,263.03 498.00,263.42
             484.90,265.54 488.91,263.29 477.00,259.72
             469.23,257.39 463.02,256.91 455.00,257.00
             446.19,257.11 436.91,259.87 429.00,263.64
             426.56,264.81 419.51,269.74 417.58,269.36
             415.37,268.92 410.08,262.97 408.00,261.21
             401.48,255.69 393.04,253.13 385.00,256.92
             378.81,259.84 363.49,276.33 357.84,282.07
             357.84,282.07 308.93,331.00 308.93,331.00
             308.93,331.00 196.00,443.93 196.00,443.93
             196.00,443.93 157.84,482.07 157.84,482.07
             154.16,485.81 143.91,495.47 141.56,499.04
             130.90,515.21 146.55,527.55 157.00,538.00
             157.00,538.00 235.00,616.00 235.00,616.00
             243.65,624.65 256.76,641.60 270.00,640.61
             279.96,639.87 286.45,631.55 293.00,625.00
             293.00,625.00 335.00,583.00 335.00,583.00
             335.00,583.00 462.00,456.00 462.00,456.00
             462.00,456.00 501.00,417.00 501.00,417.00
             505.51,412.49 518.06,400.64 520.78,396.00
             525.49,387.96 523.98,379.17 518.47,372.00
             515.82,368.55 508.82,363.66 510.10,359.00
             510.10,359.00 515.96,348.00 515.96,348.00
             519.32,340.42 521.35,332.28 521.91,324.00
             522.71,312.25 518.26,300.89 518.15,298.00
             518.08,296.32 522.07,282.65 522.98,281.04
             524.71,278.02 530.17,273.96 533.00,271.58
             533.00,271.58 554.00,253.58 554.00,253.58
             573.67,236.69 592.31,218.95 609.98,200.00
             618.95,190.37 634.71,171.85 633.91,158.00
             633.00,142.23 624.71,130.93 608.00,131.33 Z
           M 510.00,264.00
           C 512.44,258.27 518.90,250.52 522.66,245.00
             522.66,245.00 546.66,209.00 546.66,209.00
             546.66,209.00 573.32,167.00 573.32,167.00
             576.57,161.84 584.50,148.99 588.18,145.04
             597.42,135.13 616.67,131.23 625.30,144.00
             628.48,148.71 629.14,154.48 628.98,160.00
             628.66,171.71 615.75,184.52 608.42,193.00
             592.84,211.05 568.11,232.99 550.00,249.16
             543.40,255.06 528.11,269.70 521.00,273.00
             517.66,267.41 516.01,266.30 510.00,264.00 Z
           M 495.00,268.00
           C 495.00,268.00 500.00,268.00 500.00,268.00
             497.76,270.70 497.44,270.34 495.00,268.00 Z
           M 506.19,269.06
           C 515.48,266.56 520.81,277.81 512.00,281.42
             508.14,283.00 498.59,275.38 506.19,269.06 Z
           M 515.00,291.00
           C 513.15,287.60 513.79,286.85 517.00,285.00
             517.00,285.00 515.00,291.00 515.00,291.00 Z
           M 483.00,308.00
           C 484.30,308.23 485.32,308.17 486.49,309.02
             489.23,311.00 490.05,318.81 489.82,322.00
             489.02,333.04 484.39,341.72 475.00,347.89
             450.97,363.69 416.62,340.24 428.09,309.00
             429.58,304.94 431.96,301.18 435.09,298.18
             442.75,290.86 453.55,287.49 464.00,289.47
             469.60,290.52 473.97,291.98 475.00,298.00
             481.92,297.31 485.60,301.26 483.00,308.00 Z
           M 267.00,494.00
           C 272.89,489.78 280.63,481.39 286.00,476.00
             287.91,474.08 291.77,470.65 292.34,468.00
             292.84,465.70 291.22,463.01 290.26,461.00
             288.29,456.86 285.98,451.40 284.75,447.00
             279.47,428.17 284.60,407.97 301.00,396.44
             313.66,387.54 329.80,386.72 344.00,392.45
             344.00,392.45 359.00,400.10 359.00,400.10
             363.08,400.58 365.03,395.34 369.00,396.34
             371.61,396.99 381.94,407.40 382.83,410.00
             383.22,411.13 383.22,411.87 382.83,413.00
             382.11,415.10 378.62,418.36 377.00,420.00
             387.77,429.14 392.38,450.51 389.10,464.00
             387.58,470.27 384.95,474.42 382.00,480.00
             375.40,478.12 365.69,468.96 360.00,464.40
             358.15,462.92 354.11,460.06 353.41,457.83
             352.67,455.49 354.68,452.26 355.45,450.00
             356.73,446.28 356.75,444.79 356.00,441.00
             356.00,441.00 339.00,458.00 339.00,458.00
             337.01,460.01 333.47,462.98 333.41,466.00
             333.41,466.00 342.40,486.00 342.40,486.00
             349.52,503.65 347.81,520.96 333.83,534.83
             320.18,548.37 299.70,551.27 282.00,544.91
             278.66,543.71 272.10,540.39 269.00,538.55
             267.37,537.57 264.51,535.26 262.58,535.64
             260.65,536.03 251.20,545.71 248.00,548.00
             248.00,548.00 236.06,536.00 236.06,536.00
             234.55,534.31 232.72,532.48 233.34,530.00
             234.43,525.65 243.58,520.67 243.34,516.72
             243.25,515.15 240.74,511.53 239.87,510.00
             237.94,506.61 234.94,500.65 233.75,497.00
             227.41,477.68 232.27,462.42 243.00,446.00
             243.00,446.00 273.00,469.00 273.00,469.00
             267.44,481.91 267.00,479.46 267.00,494.00 Z
           M 339.00,422.20
           C 336.40,422.00 331.34,421.85 329.00,422.20
             318.65,424.77 319.00,433.61 319.00,442.00
             325.01,439.16 336.16,428.01 339.00,422.20 Z
           M 307.00,490.00
           C 301.45,493.97 286.97,508.45 283.00,514.00
             295.79,520.04 311.03,515.13 309.90,499.00
             309.64,495.28 308.65,493.25 307.00,490.00 Z" />
</svg>
