<svg width="3.26667in" height="3.26667in" viewBox="0 0 980 980">
        <path fill="black"
        d="M 470.00,0.42
           C 486.06,-1.53 505.73,0.81 522.00,1.00
             522.00,1.00 532.00,1.91 532.00,1.91
             558.70,3.86 585.04,8.64 611.00,15.13
             779.23,57.18 913.89,188.23 961.14,355.00
             969.73,385.31 975.79,416.57 978.09,448.00
             978.09,448.00 979.00,458.00 979.00,458.00
             979.00,458.00 980.00,478.00 980.00,478.00
             980.00,478.00 980.00,503.00 980.00,503.00
             980.00,503.00 979.00,521.00 979.00,521.00
             979.00,521.00 978.09,531.00 978.09,531.00
             975.12,573.50 965.59,615.87 951.31,656.00
             900.49,798.82 780.37,914.50 635.00,958.28
             603.71,967.70 574.48,973.69 542.00,977.16
             542.00,977.16 522.00,979.00 522.00,979.00
             522.00,979.00 502.00,980.00 502.00,980.00
             502.00,980.00 478.00,980.00 478.00,980.00
             478.00,980.00 458.00,979.00 458.00,979.00
             458.00,979.00 410.00,973.41 410.00,973.41
             377.56,967.97 345.70,959.70 315.00,947.81
             256.91,925.31 202.68,892.47 157.00,849.91
             112.97,808.89 75.51,759.24 49.26,705.00
             -11.83,578.79 -16.70,428.23 38.43,299.00
             91.84,173.80 195.50,74.46 324.00,28.69
             356.46,17.13 390.83,8.78 425.00,4.28
             425.00,4.28 458.00,1.00 458.00,1.00
             462.93,0.95 464.94,1.14 470.00,0.42 Z
           M 426.00,297.00
           C 426.00,291.22 426.55,272.32 425.20,268.00
             424.32,265.19 422.91,263.16 420.89,261.04
             415.58,255.46 411.33,254.84 404.00,255.01
             391.99,255.31 385.14,263.29 385.00,275.00
             385.00,275.00 385.00,297.00 385.00,297.00
             385.00,297.00 312.00,297.00 312.00,297.00
             300.80,297.00 284.05,295.92 274.00,301.00
             262.55,306.78 260.02,319.27 260.00,331.00
             260.00,331.00 260.00,559.00 260.00,559.00
             260.00,559.00 260.00,691.00 260.00,691.00
             260.02,701.38 261.92,712.92 271.00,719.35
             277.37,723.86 287.38,724.99 295.00,725.00
             295.00,725.00 510.00,725.00 510.00,725.00
             510.00,725.00 690.00,725.00 690.00,725.00
             699.13,724.96 709.82,723.10 715.30,715.00
             719.09,709.39 719.99,700.61 720.00,694.00
             720.00,694.00 720.00,389.00 720.00,389.00
             720.00,389.00 720.00,327.00 720.00,327.00
             719.92,320.42 718.56,311.33 714.44,306.04
             708.34,298.20 697.26,297.01 688.00,297.00
             688.00,297.00 594.00,297.00 594.00,297.00
             594.00,288.54 595.19,271.96 590.99,265.00
             583.02,251.78 561.66,252.25 554.44,266.00
             550.84,272.85 552.00,288.83 552.00,297.00
             552.00,297.00 426.00,297.00 426.00,297.00 Z
           M 301.00,421.00
           C 301.00,421.00 301.00,363.00 301.00,363.00
             301.08,356.26 302.14,348.24 307.21,343.33
             314.12,336.63 323.22,338.00 332.00,338.00
             332.00,338.00 385.00,338.00 385.00,338.00
             385.00,338.00 385.00,357.00 385.00,357.00
             385.02,360.13 384.98,363.02 386.15,366.00
             391.96,380.87 410.50,383.25 420.89,371.98
             428.44,363.80 426.00,348.59 426.00,338.00
             426.00,338.00 552.00,338.00 552.00,338.00
             552.00,347.44 550.55,362.11 555.85,370.00
             564.81,383.32 585.22,381.84 591.79,367.00
             594.98,359.78 594.00,346.19 594.00,338.00
             594.00,338.00 655.00,338.00 655.00,338.00
             669.31,338.02 677.93,343.87 678.00,359.00
             678.00,359.00 678.00,421.00 678.00,421.00
             678.00,421.00 301.00,421.00 301.00,421.00 Z
           M 302.00,462.00
           C 302.00,462.00 678.00,462.00 678.00,462.00
             678.00,462.00 678.00,632.00 678.00,632.00
             678.00,632.00 678.00,657.00 678.00,657.00
             678.00,661.15 678.40,667.21 677.03,671.00
             674.80,677.18 670.23,681.04 664.00,682.83
             659.83,684.03 657.23,683.99 653.00,684.00
             653.00,684.00 383.00,684.00 383.00,684.00
             383.00,684.00 339.00,684.00 339.00,684.00
             331.93,684.00 321.49,684.68 315.00,682.53
             304.61,679.10 302.02,671.97 302.00,662.00
             302.00,662.00 302.00,462.00 302.00,462.00 Z" />
</svg>
