<svg width="1.38667in" height="1.38667in" viewBox="0 0 416 416">
        <path fill="black"
        d="M 195.00,0.42
           C 217.34,-2.30 251.60,3.23 273.00,10.33
             296.14,18.02 317.90,29.19 337.00,44.45
             411.95,104.32 436.13,204.22 398.57,292.00
             389.39,313.46 376.64,331.68 361.16,349.00
             344.95,367.16 324.78,382.33 303.00,393.25
             269.50,410.04 238.29,416.43 201.00,416.00
             201.00,416.00 191.00,415.09 191.00,415.09
             174.53,413.94 158.69,410.88 143.00,405.67
             112.26,395.46 82.82,378.22 60.04,354.99
             0.29,294.03 -17.36,199.88 18.31,122.00
             41.32,71.75 82.97,32.13 135.00,13.05
             151.24,7.10 166.83,3.34 184.00,1.28
             184.00,1.28 195.00,0.42 195.00,0.42 Z
           M 310.00,73.39
           C 298.53,75.16 293.81,82.17 286.00,90.00
             283.77,92.24 278.46,96.50 279.34,100.00
             279.87,102.12 283.42,105.41 285.00,107.00
             285.00,107.00 299.00,121.00 299.00,121.00
             299.00,121.00 311.00,132.98 311.00,132.98
             312.51,134.42 314.76,136.80 317.00,136.80
             320.33,136.80 328.43,127.57 331.00,125.00
             336.62,119.37 342.67,113.60 342.66,105.00
             342.65,98.24 338.41,94.43 334.00,90.00
             327.13,83.09 320.52,73.52 310.00,73.39 Z
           M 74.00,342.00
           C 74.00,342.00 109.00,329.05 109.00,329.05
             109.00,329.05 138.00,317.30 138.00,317.30
             141.21,315.14 148.83,307.17 152.00,304.00
             152.00,304.00 177.00,279.00 177.00,279.00
             177.00,279.00 254.00,202.00 254.00,202.00
             254.00,202.00 294.00,162.00 294.00,162.00
             296.81,159.19 308.95,147.85 309.66,145.00
             310.57,141.37 304.36,136.36 302.00,134.00
             302.00,134.00 275.00,107.37 275.00,107.37
             269.39,103.64 262.65,113.35 259.00,117.00
             259.00,117.00 218.00,158.00 218.00,158.00
             218.00,158.00 138.00,238.00 138.00,238.00
             138.00,238.00 112.00,264.00 112.00,264.00
             108.83,267.17 100.86,274.79 98.70,278.00
             98.70,278.00 86.95,307.00 86.95,307.00
             86.95,307.00 74.00,342.00 74.00,342.00 Z" />
</svg>
